<svg xmlns="http://www.w3.org/2000/svg" width="357" height="131" viewBox="0 0 357 131">
  <g id="Group_97" data-name="Group 97" transform="translate(-1313 -318.94)">
    <g id="Rectangle_22" data-name="Rectangle 22" transform="translate(1313 383.94)" fill="none" stroke="#707070" stroke-width="1">
      <rect width="269" height="66" rx="33" stroke="none"/>
      <rect x="0.5" y="0.5" width="268" height="65" rx="32.5" fill="none"/>
    </g>
    <g id="Rectangle_25" data-name="Rectangle 25" transform="translate(1401 318.94)" fill="none" stroke="#707070" stroke-width="1">
      <rect width="269" height="66" rx="33" stroke="none"/>
      <rect x="0.5" y="0.5" width="268" height="65" rx="32.5" fill="none"/>
    </g>
    <g id="Rectangle_23" data-name="Rectangle 23" transform="translate(1320 391.94)" fill="none" stroke="#707070" stroke-width="1">
      <rect width="254" height="51" rx="25.5" stroke="none"/>
      <rect x="0.5" y="0.5" width="253" height="50" rx="25" fill="none"/>
    </g>
    <g id="Rectangle_26" data-name="Rectangle 26" transform="translate(1409 325.94)" fill="none" stroke="#707070" stroke-width="1">
      <rect width="254" height="51" rx="25.5" stroke="none"/>
      <rect x="0.5" y="0.5" width="253" height="50" rx="25" fill="none"/>
    </g>
    <g id="Rectangle_24" data-name="Rectangle 24" transform="translate(1328 398.94)" fill="none" stroke="#707070" stroke-width="1">
      <rect width="239" height="36" rx="18" stroke="none"/>
      <rect x="0.5" y="0.5" width="238" height="35" rx="17.5" fill="none"/>
    </g>
    <g id="Rectangle_27" data-name="Rectangle 27" transform="translate(1416 333.94)" fill="none" stroke="#707070" stroke-width="1">
      <rect width="239" height="36" rx="18" stroke="none"/>
      <rect x="0.5" y="0.5" width="238" height="35" rx="17.5" fill="none"/>
    </g>
  </g>
</svg>
