<svg xmlns="http://www.w3.org/2000/svg" width="373" height="137" viewBox="0 0 373 137">
  <g id="Group_96" data-name="Group 96" transform="translate(-85 -675.873)">
    <g id="Rectangle_28" data-name="Rectangle 28" transform="translate(177 743.873)" fill="none" stroke="#707070" stroke-width="1">
      <rect width="281" height="69" rx="34.5" stroke="none"/>
      <rect x="0.5" y="0.5" width="280" height="68" rx="34" fill="none"/>
    </g>
    <g id="Rectangle_31" data-name="Rectangle 31" transform="translate(85 675.873)" fill="none" stroke="#707070" stroke-width="1">
      <rect width="281" height="69" rx="34.5" stroke="none"/>
      <rect x="0.5" y="0.5" width="280" height="68" rx="34" fill="none"/>
    </g>
    <g id="Rectangle_29" data-name="Rectangle 29" transform="translate(185 751.873)" fill="none" stroke="#707070" stroke-width="1">
      <rect width="265" height="53" rx="26.5" stroke="none"/>
      <rect x="0.5" y="0.5" width="264" height="52" rx="26" fill="none"/>
    </g>
    <g id="Rectangle_32" data-name="Rectangle 32" transform="translate(93 683.873)" fill="none" stroke="#707070" stroke-width="1">
      <rect width="265" height="53" rx="26.5" stroke="none"/>
      <rect x="0.5" y="0.5" width="264" height="52" rx="26" fill="none"/>
    </g>
    <g id="Rectangle_30" data-name="Rectangle 30" transform="translate(193 759.873)" fill="none" stroke="#707070" stroke-width="1">
      <rect width="250" height="37" rx="18.5" stroke="none"/>
      <rect x="0.5" y="0.5" width="249" height="36" rx="18" fill="none"/>
    </g>
    <g id="Rectangle_33" data-name="Rectangle 33" transform="translate(100 691.873)" fill="none" stroke="#707070" stroke-width="1">
      <rect width="250" height="37" rx="18.5" stroke="none"/>
      <rect x="0.5" y="0.5" width="249" height="36" rx="18" fill="none"/>
    </g>
  </g>
</svg>
