<?xml version="1.0" encoding="utf-8"?>
<!-- Generator: Adobe Illustrator 16.0.0, SVG Export Plug-In . SVG Version: 6.00 Build 0)  -->
<!DOCTYPE svg PUBLIC "-//W3C//DTD SVG 1.1//EN" "http://www.w3.org/Graphics/SVG/1.1/DTD/svg11.dtd">
<svg version="1.1"
	 id="圖層_1" mapsvg:geoViewBox="123.658963 45.523885 145.820743 24.217586" xmlns:mapsvg="http://mapsvg.com" xmlns:dc="http://purl.org/dc/elements/1.1/" xmlns:rdf="http://www.w3.org/1999/02/22-rdf-syntax-ns#" xmlns:svg="http://www.w3.org/2000/svg"
	 xmlns="http://www.w3.org/2000/svg" xmlns:xlink="http://www.w3.org/1999/xlink" x="0px" y="0px" width="437.334px"
	 height="516.016px" viewBox="0 0 437.334 516.016" enable-background="new 0 0 437.334 516.016" xml:space="preserve">
<path id="JP-23" fill="#E95A59" stroke="#898989" stroke-miterlimit="10" d="M228.622,316.29l-0.17-0.35l0.5-1.771l-0.859-1.399
	l0.109-1.461l0.461-1.369l-0.25-0.32l-0.891,0.359l-1.14-0.35l0,0l-0.97-1.57l-0.32-1.209l0,0l0.22-2.19l1.69-2.97l1.279,0.149
	l1.66-0.5l1.48-1.13l-0.02,0.57l1.18,0.869l-0.03,0.65l0.5,0.21l-0.09,0.48l0.271,0.319l0.319,0.15l0.3-0.21l0.939,0.39l0.521,0.711
	l0.851-0.17l0.92-0.73l0.63-0.01l0.75,0.47l-0.07,0.239l0.841,0.051l-0.021,0.31l0.989,0.5l1.721-1.399l0.8-0.08l0,0l-0.319,0.83
	l0.639,0.81l-0.01,0.511l1.26-0.261l0.851-0.55l1.56,0.3l0.221,0.39l0.84-0.27l0,0l-0.311,0.98l0.521,0.5l-0.58,0.569l0.08,0.47
	l-0.46,0.24l-1.46,2l-0.03,1.061l-1.279,1.93l-2.75,1.529l-0.431,1.23l0.16,2.32l0,0l-3.41,0.79l-3.43,1.229l-2.03,0.271l-0.26-0.21
	l0.8-1.71l0.49,0.05l0.25,0.57l2.36-1.021l0.859-0.53l-0.1-0.439l0.449-0.359l0.48,0.149l0.221-0.19l0.209-1.14l-0.57-0.7
	l-1.689-0.311l-0.52,0.461l-0.24,0.93l-0.811-0.57l-2.129,0.25l-1.421-1.369l0.31-1.08l-0.439-0.19l-0.42,0.59l-0.27,2.22
	l1.02,0.931l0.15,0.88l-1.69-0.6L228.622,316.29L228.622,316.29z"/>
<path id="JP-05" fill="#E95A59" stroke="#898989" stroke-miterlimit="10" d="M291.872,193.82l-0.689-2.75l-1.39-1.62l0.51-0.81
	l0.74,0.23l0.6,0.89l0.19-1.14l-0.26-0.41l0.399-0.61l0.19-1.4l-0.34-1.41l-1.07-0.44l-0.45,0.43l-0.54,0.81l-0.609,2.06l0.539,0.42
	l-0.08,1.26l-0.75-0.29l-0.89,0.15l-0.19,0.25l0.17,0.85l-2.1-0.09l-0.96-1.84l-0.22-1.3l0.14-0.73l1.931,1.32l0.67-0.21l1.479-1.46
	l0.87-1.57l0.8-2.39l0.601-3l0.029-1.67l-1.72-1.81l0,0l0.511-0.11l1.129,0.35l0.26-0.87l0.771-0.35l0.54,0.32l0.21,0.49l1.479-0.13
	l0.811,0.28l1.35-0.38l0.86,0.18l0.5-1l1.31-0.11l0.271,0.84h0.8l1.15,1.19l1-0.84l1.25,0.84l0.79-0.63l0.76-0.05l0.72-0.62
	l0.711,0.1l0.239-1.08l1.229-0.49l-0.159,2.35l2.13-0.23l0.279,1.84l-0.409,0.27l-0.5,1.22l0.14,1.31l0,0l-0.4,0.57l-0.609,0.22
	l-0.811,1.11l0.4,0.49l-0.15,1.56l-0.52,0.46l-0.05,2.68l0.62,2.5l-0.561,0.18l-0.49-0.48l-0.819,0.45l0.069,1.06l1.121,0.66
	l-0.82,1.47l-0.391,0.14l0.66,1.17l0.131,1.08l-0.511,1.19l-0.271-0.03l-0.609,0.86l-0.42,0.11l0.21,0.72l-0.431,1.34l-0.779,0.85
	l0.05,0.81l-0.45,0.12l-0.05,0.65l0.39,0.09l0.601,1.25l-0.149,0.92l0.529,0.75l1.12,0.77l-0.33,1.06l0.851,0.44l-0.601,0.3
	l-0.47,0.83l0.27,0.22l-0.279,0.97l0.97,0.38l0.14,0.4l-0.79,1.37l0.08,1.15l0,0l-0.71,0.17l-1.641,1.57l-1.76,0.36l-0.27-0.18l0,0
	l-0.24-0.45l-1.52-0.53l-0.58-1.8l-1.061-0.08l-0.35-0.77l-1.08,0.27l-3.08-0.94l-0.79-0.7l-0.71-0.18l-0.199-1.17l-0.98,0.24
	l-0.37,0.46l-2.511-0.41l0,0l0.681-1.47l-0.229-0.93l0.39-0.78l-0.04-0.53l0.39-0.61l0.7-0.11l0.939-2.39l0.801-4.19L291.872,193.82
	L291.872,193.82z"/>
<path id="JP-02" fill="#E95A59" stroke="#898989" stroke-miterlimit="10" d="M313.003,164.06l0.92-0.83l0.58-1.05l0.57-1.85
	l0.229-2.45l0.59-1.14l-0.72-2.06l-0.859-1.04l-0.791-0.08l-0.85,1.61l-1.13,0.81l-1.521-0.42l-0.67,0.65l-1.81,0.34l-0.851,0.87
	l-0.93-0.47l0.689-4.59l0.42-0.66l0.311-1.84l1.43-2.03l-0.22-0.82l0.3-0.55l1.721,1.57l1.32,0.11l0.889,0.5l1.57,1.97l1.461,0.85
	l0.89,0.11l1-0.37l2.04-1.67l-1.49,6.85l-0.1,5.09l0.55,5.55l1.37,4.86l1.18,1.09l0.67-0.39l0.23,0.55l1.91,1.89l0,0l-0.471,0.54
	l-1.39,0.62l-0.11,0.83l-0.89,0.69l-1.24-0.77l-0.68,0.09l-1.72,1.1l-0.681-1.08l-1.96,1.49l-1.52,0.38l-0.74,0.5l-0.04,0.72
	l-0.46,0.02l-1,0.78l-0.939-0.01l-0.461-0.68l0,0l-0.14-1.31l0.5-1.22l0.41-0.27l-0.28-1.84l-2.13,0.23l0.16-2.35l-1.23,0.49
	l-0.239,1.08l-0.711-0.1l-0.72,0.62l-0.76,0.05l-0.79,0.63l-1.25-0.84l-1,0.84l-1.15-1.19h-0.8l-0.271-0.84l-1.309,0.11l-0.5,1
	l-0.861-0.18l-1.35,0.38l-0.81-0.28l-1.479,0.13l-0.211-0.49l-0.539-0.32l-0.771,0.35l-0.261,0.87l-1.129-0.35l-0.511,0.11l0,0
	l0.261-1.78l-0.19-1.44l-0.45-0.86l-0.96,0.05l-0.149-0.82l1.779-1.42l1.02-1.8l0.65-0.44l0.61-0.25l1.229,0.69l1.43-1.07l0.811-0.1
	l0.42-0.61l1.02-3.61l0.07-3.8l-0.689-0.75l-0.7-0.08l0.17-0.39l0.88,0.23l0.381-0.43l0.399-2.95l1.09,0.69l0.67,0.99l0.64,0.36
	l0.67-0.19l1-1.01l1.091,0.38l0.649,0.72l-0.109,2.27l0.39,2.52l0.729,3.28l0.931,1.19l1.33-0.11l1.19-1.28l0.22-0.56l-0.22-1.24
	l0.33-1.45l1.489,0.54l0.681,0.96l-0.181,0.55l0.729-0.01l0.921,0.45l0.53,0.88L313.003,164.06L313.003,164.06z"/>
<path id="JP-12" fill="#E95A59" stroke="#898989" stroke-miterlimit="10" d="M287.532,301.53l0.141-0.211l0.96,0.421l0.39-0.47
	l-0.3-0.721l0.091-0.58l1.35-0.38l-0.12-0.51l0.28-0.13l0.24,0.38l1.51-2.16l0.569,0.45l0.23-0.35l-0.54-1.29l-0.76-0.83
	l-1.211-1.19l-0.689,0.29l-0.35-0.76l0,0l-1.08-2.26l0,0l0.34-0.26l0.22-1.33l-1.68-3.221l-0.05-1.04l-0.711-1.409l0,0l0.42,0.029
	l0.33,0.84l1.631,2.01l0.72,0.24l0.2,0.71l1.039,0.7l2.461,0.859l0.58,0.721l1.02-0.41l0.86,0.11l0.59-0.4l0.8,0.229l0.859-0.819
	l2.011-0.521l1.08,0.521l0.909-0.04l1.131,0.971l1.23,0.26l1.109,1.529l2.5,1.54l0,0l-0.109,0.65l-0.761-0.511l-1.5,0.5l-0.8-0.219
	l-0.75,0.189l-2.721,2.07l-1.389,1.569l-1.121,2.16l-0.289,2.32l0.469,1.23l-0.609,2.85l-0.67,0.14l-0.471,1.021l-0.279,0.1
	l-2.15,0.62l-0.229-0.44l-1.28,0.19l-0.811,1.1l-1.969,1.36l-0.511,1.21l0.101,0.58l-0.45,0.61l-1.04,0.43l-1.17-0.211l-0.19-0.719
	l-1.31-0.67l0.029-0.291l0.801,0.11l1.25-0.56l-0.78-1.66l0.46-0.5l-0.359-0.36l0.289-0.7l-0.41-0.57l0.01-0.83l0.921-0.709
	l0.079-0.521l-0.439-0.75l0.061-0.39l-0.75-0.46L287.532,301.53z"/>
<path id="JP-38" fill="#E95A59" stroke="#898989" stroke-miterlimit="10" d="M142.453,351.18l0.23-0.43l0.35-0.26l0.35,0.04
	l0.02-0.2l-0.29-0.13l-0.38-0.16l-0.47,0.16l-0.28,0.229l-0.44-0.25l-0.2,0.38l-0.4-0.13l-0.14-0.229h-0.46l0.13-0.45l0.17-0.13
	l0.14-0.101l0.31-0.119l-0.03-0.171l-0.04-0.25l-0.3,0.03l-0.22-0.37l0.35-0.29l-0.07-0.359l-0.27-0.07l0.35-0.32l0.16-0.04
	l0.22-0.27l0.09-0.46l-0.23,0.13l-0.4-0.05l0.17-0.41l-0.51,0.1l-0.33-0.359l-0.23,0.06l-0.35,0.29l-0.86,0.601l-0.52,0.14
	l-0.33,0.37l-1.1,0.33l-0.57,0.529l-0.16,0.311l-0.31,0.28l-0.51,0.06l-0.03-0.24l0.35-0.22l0.01-0.17l-0.51,0.02l-0.85,0.71
	l-0.51,0.311l-0.25,0.01l2.15-1.81l0.51-0.3l0.66-0.36l0.57,0.08l0.31-0.33l0.31-0.14l0.46-0.04l0.24-0.141l0.1-0.18l1.16-0.521
	l0.86-0.64l0.75-0.4l0.21-0.5l0.83-0.989l0.63-0.46l1.55-0.561l1.22-0.91l0.21-0.239l0.37-0.98l0.45-0.4l-0.23-0.72l-0.01-0.99
	l0.2-1.04l0.24-0.66l0.43,0.17l0.43-0.289l0.34-1.221l0.07-0.619l1.77-1.67l1.11-0.17l-0.06-0.451l0.26-0.17l-0.15-0.56l0.36-0.601
	l0.75,0.871l0.98,1.41l0.72,1.479l0.38,0.601l0.13,0.43l0.5,0.359l0.95-0.32l1.38-0.34l0.37-0.1l-0.12-0.46l1.2-0.2l0.24-0.26
	l0.38,0.05l0.37,0.33l0.7-0.3l0.68,0.1l0.48,0.1l0.73,0.33l0.5-0.069l0.69-0.5l0.2-0.341l0.14-0.439l0.16-0.08l0.4-0.27l0,0
	l0.33,0.27l0.95,0.131l0.61,0.34l0,0l-0.29,0.68l0.27,0.49v1.039l-0.22,0.61l-0.34,0.29l0,0l-0.41,0.01l-0.65-0.01l-0.47,0.33
	l-0.51-0.34l-0.21,0.04l-0.56,0.77l-0.21,0.271l-0.2,0.16l-2.07,0.069l-0.8-0.13l-1.47,0.021l-0.2,0.17l-0.22,0.729l-0.18,0.11
	l-0.52,0.189l-0.34-0.34l-0.2,0.021l-0.26,0.689l-0.39,0.79l-0.4,0.4l-0.35,0.5l-0.06,0.55l-0.22,0.28l-0.61,0.1l-0.18,0.65
	l-0.25,0.729l-0.19,0.46l0.29,0.29l0.04,0.521l-0.36,0.27l-0.57,0.88l-0.01,0.271l-1.2,0.34l-0.21-0.13l-0.66,0.08l-1.3-0.21
	l-0.41,0.109l-0.32,0.301l0.35,0.319l0.15,0.94l0.15,0.2h0.2l0.23,0.72l0.45,0.14l0.27,0.36l0.04,0.57l-0.08,0.22l-0.8,0.46
	l-1.21,0.42l-0.31,0.521l-0.18,1.14l-0.43,0.03l-0.17,0.149l-0.14,0.47l-0.71,0.9l-0.19,0.07l-0.95-0.92l-0.11-0.271l-0.2,0.07
	l-0.14,0.29l0.29,0.62l-0.03,0.26l0.47,0.51l0.21,0.05l0.09,0.301l-0.2,0.92l0.3,0.31l0.21,0.94l-0.01,1.33l-0.41,0.1l-0.05,0.38
	l0,0l-0.32-0.12l-0.94,0.351l-0.14-0.271l-0.25-0.34l-0.09-0.18l-0.46,0.16l-0.19,0.09l-0.26,0.06l-0.02,0.29l0.02,0.13l-0.19,0.261
	l-0.35-0.03l-0.27,0.01l-0.25-0.04l0.08-0.37l-0.32-0.38l0.1-0.12l0.36-0.04l0.35-0.26l-0.63-0.34l0.28-0.23l0.24,0.141l0.15,0.04
	l0.14-0.101l-0.21-0.39l0.1-0.26l-0.3-0.141l-0.12-0.04l-0.01-0.83l-0.28-0.04l-0.35,0.33l-0.42-0.239l-0.38,0.17l-0.13,0.08
	l-0.09,0.21l-0.05,0.29l-0.36-0.181l0.33-0.399l0.02-0.381l0.15-0.35l0.22-0.05l0.2,0.11l0.14,0.34l0.33-0.061l0.57-0.22l0.13-0.271
	l-0.3-0.119l0.21-0.391l0.38-0.6l-0.02-0.33l-0.39-0.09l-0.15,0.01l-0.22,0.08l-0.15,0.13l-0.22-0.14l0.05-0.25l-0.36-0.17
	l0.15-0.33l0.29-0.351l-0.52-0.56l0.51,0.2l0.69,0.34l0.29,0.33l0.35,0.02l-0.08-0.37l-0.2-0.41l0.31-0.27l0.56,0.04l0.23-0.03
	l0.09-0.16l-0.14-0.34l-0.28,0.04l-0.38-0.34l0.39-0.21l0.04-0.31l-0.8,0.05L142.453,351.18L142.453,351.18z"/>
<path id="JP-18" fill="#E95A59" stroke="#898989" stroke-miterlimit="10" d="M206.643,296.6l1.16,0.72l0.069,0.381l0.311-0.04
	l0.42-0.261l-0.65-0.81l0.201-0.13l0.539,0.36l0.37-0.65l-0.579-0.449l-0.25-0.841l0.59,0.149l0.43,0.691l0.76-0.4l0.15,0.35
	l1.22-0.359l0.229-0.431l-0.25-0.319l0.061-0.951l-0.43-0.68l1.24-0.99l0.389,0.601l-0.229,1.431l0.36,0.539l0.6-0.109l0.48-1.521
	l0.02-1.28l-0.57-1.129l-1.52-1.521l0.08-1.101l-0.79-1.189l1.06-1.27l0.351-1.49l2.1-3.09l-0.239-0.66h0.85l1.529-1.09l0,0
	l1.681,1.59l0.25,1.25l0.41,0.38l0.899-0.13l0.65,0.76l0.47,0.05l1.75-0.42l1.86,1.46l0.24,0.62l1.89-0.479l0,0l0.21,0.489
	l-0.49,0.37l-0.25,1.391l0.5,0.369l-0.05,0.53l0.79,0.28l-0.13,0.49l0.64,0.529l0.301,1.221l-0.631,0.459l-0.17,0.78l-1.34-0.02
	l-1.13,0.489l-0.42-0.52l-0.46,0.45l-0.52-0.17l-0.49,0.44l-0.82-0.211l-0.561,0.771l-0.299-0.511l-1.061,0.021l-1.17-0.42
	l-0.9,0.479l-0.01,0.971l-0.99,1.64l0,0l-1.811-0.94l-0.67,0.131l-0.31,0.67l0.83,1.76l-0.13,0.75l-1.1-0.32l-0.351,1.07l-1.29,0.13
	l-0.449,0.87l-0.461,0.101l-0.77-0.771l-1.04,2.771l-0.569,0.279l-0.351-0.4l-0.66-0.01l-0.05,0.5l-0.37,0.1l-0.45,0.74l0,0
	l-1.369,0.26l-1.511-0.59l-1.729-0.189l-0.131-0.87l-1.31-1.21l0.29-1l-0.52-0.42l0.41-0.9l0,0l0.879,0.17l-0.209,1.09l0.18,0.25
	l2.58,0.391l1.779-0.38l0.271-0.88l-0.65,0.27l-0.03-0.5l-0.569-0.109l0.521-0.591L206.643,296.6L206.643,296.6z"/>
<path id="JP-40" fill="#E95A59" stroke="#898989" stroke-miterlimit="10" d="M101.523,341.49l1.24-1.351l0.14-0.6l-0.12-0.36
	l-0.33,0.011l-0.06-0.681l0.56-0.05l0.25-0.81l0.85-0.521l-0.08-0.39l0.78-0.03l0.25,0.3l1.04-0.109l0.68-0.4l0.71-0.94l1.1,0.451
	l0.45-0.341l1.79,0.39l0.43,0.58l0.74-0.279l0.32-0.771l1.16-0.76l0.4,0.31l-0.72,1.351l0.17,0.96l-0.79,0.7l0.22,0.46l0.66-0.13
	l0.55,2.529l1.4,2.101l0.56-0.28l1.08,0.76l0,0l-0.15,0.37l0.3,0.8l-0.39,0.521l0.13,0.46l-1.91,0.109l-0.97-0.27l-0.93,0.229
	l-1.61,1.381l-0.3,1.649l-0.49,0.13l-0.47,0.69l0.3,0.16l0.29,0.95l-0.14,0.64l-0.52,0.26l-0.12,0.38l0.36,0.19l-0.03,0.62
	l0.84,0.729l-0.48,1.38l-0.35,0.25l0,0l-1.53-0.52l-0.67-0.61l-0.81,0.04l-0.16-0.399l-0.53,1.439l-1.5-0.17l-1.62,1.49l0.18,1.07
	l-2.14-0.08l0,0l0.48-1.101l-0.32-0.8l-0.74-0.78l0.03-0.409l-0.37-0.19l0,0l0.17-1.23l0.59-1.04l1.85-1.42l0.51-0.859l0.51,0.029
	l0.02-2.25l-0.41-0.21l-0.74,0.25l-0.99,0.95l-0.62-0.71l-0.77-0.17l-1.7-1.07l-0.48,0.221l-0.86-0.24l-0.69,0.32l-2.63-0.08l0,0
	l0.15-0.681l1.61-0.319l0.54-0.641l0.19-0.55l-0.42,0.3l-0.15-0.449l-0.27-0.16l-0.45,0.239l-0.22-0.399l1.19-0.351l0.29-0.38
	l-0.12-0.38l0.85-0.3l0.15-0.61l0.59,0.4l-0.25,0.37l0.18,0.42l0.82,0.14l0.11,0.7l0.48-0.08l0.16-0.34l0.66,0.07l1.04-0.49
	l0.12-0.84l0.57-0.23l-0.08-0.6L101.523,341.49L101.523,341.49z"/>
<path id="JP-07" fill="#E95A59" stroke="#898989" stroke-miterlimit="10" d="M309.793,262.16l-0.62,0.811l-2.49,1.189l-0.39,0.66
	l0.04,0.479l0,0l-3.43-1.04l-0.57-1.029l-0.34,0.459l0.459,1.301l-1.119,0.49l-1.461,1.399l-0.43-0.569l-1.14-0.42l-0.33-1.16
	l-0.819-0.25l-0.761-1.021l-0.55-0.03l0,0l-0.33-0.33l0.16-1.859l-0.85,0.05l-0.23-0.94l-1.02-0.979l-2.391-1l-2.41-0.28
	l-1.359,0.59l-0.18,0.91l-2.791,0.87l-0.26,0.42l-0.79,0.19l-0.229,0.439l-0.631,0.09l-0.92,0.74l-1.359,0.24l-0.71,1.02
	l-0.94,0.431l0,0l-2.3-0.72l-0.521,0.199l-0.01-0.369l0,0l0.24-0.42l-0.109-1.341l0.219-0.78l-0.42-1.39l0.351-1.28l-0.47-0.93
	l-0.68-0.16l-0.59-0.8l0.969-1.4l0.201-1.16l0.14-1.19l-0.671-0.56l0.57-0.92l2.15-0.24l0.55-0.29l0.681,0.24l0.319-1.19l0.41-0.16
	l0.47-0.04l0.391,0.32l0.369-0.24l1.261,0.22l0.479-0.23l-0.38-0.82l0.091-0.81l-0.421-1.03l0.03-0.73l1.529-1.04l-0.129-0.24
	l0.709-1.3l1.58-1.71l0,0l0.791-0.18l0.629,0.68l0.94-0.58l0.61,0.39l0.63-0.07l0.33-0.35l0.97,1.68l1.23-0.46l1.47,1.12l0.739-0.56
	l1.301,0.26l1.33-1.61l-0.551-0.41l-0.039-2.01l0.3-1.71l0,0l1.39,0.66l1.13-0.57l1.14,0.69l0.371,1.09l2.649-0.27l0.82,0.28
	l0.56,0.46l-0.18,1.14l0.279,0.75l0.631,0.5l1.21,0.27l0.149-0.16l-0.47-0.39l1.58,0.06l0.13-0.22l-0.029-2.17l0.719-0.27l0.69,0.18
	l0,0l0.38,1.28l0.711,0.43l0.049,1.28l0.44,0.75l0.55,6.03v3.31L309.793,262.16L309.793,262.16z M306.362,265.32L306.362,265.32
	l0.03,0.01L306.362,265.32z"/>
<path id="JP-21" fill="#E95A59" stroke="#898989" stroke-miterlimit="10" d="M220.112,305.17l-0.72-0.69l0.32-0.209l0.021-0.931
	l0.319-0.521l0.04-1.34l0.55-0.439l-0.53-0.85l0.09-1l-0.629-0.641l0.24-0.89l-0.551-0.71l-0.311,0.5l-0.779-0.29l0.12-1.6
	l-0.66-0.07l-0.261-1.07l0,0l0.98-1.641l0.01-0.969l0.9-0.48l1.17,0.42l1.061-0.01l0.3,0.51l0.56-0.77l0.82,0.22l0.48-0.44
	l0.52,0.17l0.46-0.439l0.41,0.52l1.13-0.49l1.35,0.021l0.17-0.78l0.621-0.46l-0.301-1.22l-0.641-0.52l0.121-0.49l-0.791-0.28
	l0.051-0.53l-0.49-0.369l0.24-1.391l0.5-0.37l-0.21-0.489l0,0l0.5-1.091l-0.23-0.739l0.61-0.23l0.939-1.67l-0.039-0.391l-0.761-0.43
	l-0.25-0.58l0,0l0.58-0.08l0.29-1.06l0.77-0.56l0.25,0.59l0.351-0.36l0.92,0.51l0.34,0.771l-0.26,0.729l0.34,0.08l1.39-1.22
	l0.25-1.15l2.08-2.02l0.551-0.021l0.25,0.44l1.459-0.69l0.591,0.05l0.04,0.881l0.21,0.039l1.35-0.799l0.28,0.779l1.13,0.35
	l0.71-0.34l0.84,0.82l0.94,0.07l0,0l0.13,0.51l1.029,0.66l0.091,0.529l-0.091,0.78l-1.39,1.81l0.38,0.551l-0.05,0.52l-0.75,0.711
	l-0.01,0.81l0.46,0.5l0.72,0.25l-0.39,1.569l-1,0.76l-0.37,0.921l-0.44,0.1l-0.52,1.06l-0.42,0.07l-0.33-0.33l-1.15,0.351
	l-0.35,1.06l-0.59,0.25l-0.11,0.54l0.29,0.39l1.04,0.011l0.05,0.51l1.23,0.37l0.8,1.79l0.78,0.7l-0.43,1.279l0.39,0.45l-0.07,1.1
	l0.31,0.551l1.07-0.32l0.57,0.54v0.91l-0.65,0.7l0.711,0.979l-0.871,0.29l0.261,1.27l-0.841,0.65l0.011,0.53l0,0l-0.8,0.08
	l-1.721,1.399l-0.99-0.489l0.021-0.32l-0.84-0.04l0.069-0.24l-0.75-0.479l-0.629,0.021l-0.92,0.729l-0.851,0.17l-0.521-0.71
	l-0.939-0.391l-0.3,0.211l-0.32-0.15l-0.271-0.32l0.091-0.49l-0.49-0.199l0.03-0.65l-1.18-0.87l0.02-0.56l-1.49,1.119l-1.66,0.5
	l-1.27-0.149l-1.689,2.979l-0.221,2.19l0,0l-1.08-0.12l-1.689-2.5L220.112,305.17z"/>
<path id="JP-10" fill="#E95A59" stroke="#898989" stroke-miterlimit="10" d="M284.053,280.939l-0.31,0.58l-0.49,0.181l-0.52-0.479
	l-2.541,0.479l-1.81-1.341l-0.86,0.211l-0.97-0.29l-0.601,0.149l-1.689-0.859l-0.7-0.051l-1.229,1.971l-0.021,0.93l-0.42,0.76
	l-1.53,0.07l-0.459,0.78l-1.521,0.399l-0.92,1.01l-1.229,0.021l-0.75,1.011l0,0l-0.361,0.09l-0.359-0.521l-0.609-0.19l-0.381-1.77
	l0.33-0.35l-0.279-0.67l-0.65-0.08l-0.439-0.761l0.159-0.17l0.46,0.33l0.45-0.479l0.03-0.811l-0.42-0.439l-0.23-1.11l1.03-0.681
	l0.069-1.479l-0.289-1.149l-0.83-0.25l-0.7,0.1l-0.44,0.4l-0.88-0.25l-0.21,0.31l-0.43-0.069l-1.25-0.74l-0.061-1.301l0.601-1.66
	l-0.021-0.99l0.961-1.18l0.959-0.16l0.01-1.09l1.791-0.359l1.55-0.83l0,0l0.25,0.17l0.36-0.63l1.199,0.44l0.79-0.671l-0.1-1
	l0.64,0.03l1.49-0.62l-0.25-0.44l0.29-0.949l0.851,0.109l0.09-0.26l-0.271-1.93l1.64-0.28l0.82-0.729l0.12-0.95l1.54,1.55
	l0.109,0.76l0.92,0.07l0.23,0.34l0,0l0.01,0.37l0.521-0.2l2.3,0.71l0,0l-0.58,1.54l1.02,0.44l-1.02,1.409l0.28,1.17l-0.591,0.891
	l-0.18,1.37l1.471,0.739l1.229-0.069l0.341,0.681l-0.82,0.649l-0.4,1.2l0.33,0.76l-1.189,1.55l-0.181,0.96l1.05,0.78l-0.039,0.58
	l1.109,0.97l1.01-0.29l0.71,0.431l1.11-0.181l0.38,0.24l-0.09,0.28L284.053,280.939z"/>
<path id="JP-28" fill="#E95A59" stroke="#898989" stroke-miterlimit="10" d="M181.603,315.96l-1.09,0.9l-1.21-0.221l0,0l-0.54-1.369
	l-1.08-0.961l-0.18-0.47l0.7-1.31l-0.68-0.85l0.35-0.32l0.15-0.91l-0.2-0.59l0.92-0.541l0.06-0.93l0.59-0.25l0.24-1.1l0.24-0.26
	l0.67,0.07l0.08-0.781l-0.63-0.659l0.44-0.8l0,0l0.58,0.26l1.64-1.15l-0.26-1.16l0.15-0.43l-0.73-0.96l0.09-1.08l-0.73-0.34
	l-0.49-1.88l0.12-1.021l-0.38-0.77l-0.69-0.52l0,0l2.13-0.66l1.22-0.74l1.2,0.311l0.42,0.469l0.82-0.67l1.38,0.201l1.28-0.291
	l0.45,0.33l0.979-0.06l0,0l0.021,2.021l0.86,0.8l0.209,0.609l0.721,0.18l1.33-0.66l0.32,0.541v2.63l-0.91,0.52l-1.141-0.55l-0.369,1
	l0.02,1.27l1.49,0.61l1.32,1.13l0.76-0.46l1.02,0.021l0.02,0.779l0.86,0.82l-0.25,0.551l0.55,0.239l0.43-0.36l0.811,0.041
	l0.221,0.06l0.039,0.729l0.851-0.18l0.97,0.49l0.29,1.26l-0.38,0.21l-0.17,0.54l0,0l-0.43-0.05l-0.291,0.31l0.4,0.24l0.08,0.971
	l-0.24,0.359l1.4,0.811l0.96,0.14l-0.91,0.51l0.431,0.25l-0.471,2.04l0.74,1.24l0.15,1.43l-0.541,1.21l0,0l-0.439-0.33l0.141-0.47
	l-0.25-0.52l-0.92,0.319l-0.421-0.601l-0.97-0.129l-1.98,0.939l-0.1,0.68l-2.58,0.641l-4.27-1.721l-1.67-1.649L181.603,315.96
	L181.603,315.96z M191.003,327.04l0.22,0.77l-2.06,0.84l-0.98,0.82l-1.34,0.19l-0.01-0.45l-0.59-0.311l0.06-0.5l-0.43-0.159
	l-0.54-1.011l0.67-0.959l0.38,0.239l0.47-0.239l1.33-2.82l0.4-0.46l0.41,0.01l0.949-1.5l0.95-0.431l0.771-1.119l0.55-0.29l0.44,0.83
	l-0.601,0.72l-0.149,0.77l-1.781,2.33l-0.01,1.541L191.003,327.04L191.003,327.04z"/>
<path id="JP-01" fill="#E95A59" stroke="#898989" stroke-miterlimit="10" d="M298.393,109.98l2.71-2.13l0.04-0.59l-1.96-3.17
	l-1.38-0.99l-0.7-1.16l0.68-2.54l-0.27-0.48l1.641,0.11l0.6-0.42l0.21-0.54l0.53-0.21l2.75,2.66l1.93,0.87l1.13,1.28l2.479-0.47
	l0.17-0.42l1.021-0.32l0.72,0.02l-0.14,1.17l3.04,1.39l2.2-1.22l1.97-2.15l0.99-1.6l0.1-2.35l-1.38-2.76l0.54-1.94l-0.66-1.44
	l-0.449-2.27l1.02-2.1l1.47-0.89l0.761-0.05l2.029-1.32l0.93-1.89l0.41-1.95l-0.35-7.86l0.5-0.32l1.64-3.44l0.21-2.86l0.381-0.79
	l0.129-1.6l-0.299-3.27l-0.771-3.84l-3.04-7.32l-0.311-1.16l0.07-0.99l0.86-1.27l0.79-1.95l-0.41-1.4l0.15-1.28l0.75,0.771
	l0.129,0.52l0.391,0.16l1.76-0.28l1.35-0.94l0.551-1.99l0.869-0.31l0.471,0.33l0.561,1.29l0.59,0.34l0.629,1.47l2.32,1.7l2.211,3.12
	l4.949,5.56l3.91,7.23l2.58,2.55l2.439,3.1l5.58,4.4l1.57,0.89l0.33,0.95l1.26,0.96l3.7,1.94l3.24,1.28l5.88,1.69l2.79,0.53
	l0.44-0.31l0.289,0.77l-0.06,1.28l0.87,1.55l0.58,0.48l3.21,1.01l3.409,0.21l2.57-0.32l2.28-1.99l1.54-1.92l2.18-2.04l1.83-1.26
	l0.66-1.45l1.101-1.16l0.779-1.38l0.46,0.03l0.45,2.23l-1.21,2.49l-0.91,0.92l-0.6,2.4l-1.73,2.13l-0.939,2.12l0.1,0.83l-0.77,2.05
	l0.22,1.06l1.35,2.58l1.49,1.97l1.521,5.23l1.489,1.96l-1.16-0.53l-0.189-0.53l-1.14-0.22l-0.24,0.37l0.21,1.26l0.859-0.67
	l0.471,0.4l-0.29,0.55l0.37,0.39l0.399-0.28l2.55,0.62l2.091-1.7l0.319-0.6l1.11-0.71l0.24-0.5l3.279,0.2l-0.189,0.5l-1.17,0.91
	l-1.73,0.31l-1.87,1.03l-0.8,2.93l-0.77-0.36l-1.24-0.05l-2.71,0.51l-1.51,0.9l-1.261-0.21l-0.62,0.6l-0.14,1.15l-1.6,2.15
	l-1.021,0.49l-1.899-0.1l-0.9-0.79l0.03-0.53l0.329-0.31l-0.549-0.37l-0.73,0.1l-1.189,1.73l-0.021,0.41l1.149,1.13l-2.01-0.12
	l-1.15-0.35l-3.579-0.02l-0.69-0.15l-1.58-1.271l-3.06,0.54l-2.431,1.18l-3.399,2.53l-5.271,5.271l-4.08,5.8l-1.529,3.31l-0.28,1.67
	l0.55,1.44l-0.82,3.88l-0.909,1.53v1.61l-3.7-3.72l-4.85-2.02l-8.09-4.45l-2.381-1.67l-1.84-2.05l-3.21-0.94l-2.21-2.05l-1.82-1.2
	l-1.83-0.53l-2.379-0.04l-3.17,1.04l-2.08,1.29l-2.681,2.28l-1.59,0.89l-2.12,2.45l-0.34,0.75l-1.07-0.4l-0.33-0.55l0.381-0.29
	l0.59,0.64l0.119-0.81l-1.35-0.41l-0.87-2.37l-0.79-0.4l-1.07-1.12l-0.119-0.58l-1.271-1.229l-1.239-0.09l-1.25,0.53l-0.971-0.59
	l-1.21,0.03l-1.68,1.81l-1.44,2.75l-0.71,2.55l0.28,1.94l2.32,1.2l2.74,2.35l0.75,0.14l1.369-0.53l2.04,0.31l1.229,2.21l1.631,1.22
	l1.08,1.88l3.15,1.36l0.549,0.89l0.791,0.59l-0.61,0.61l-0.95,0.01l-1.1,1.3l-1.66,0.66l-0.86-0.79l-2.78-0.91l-0.93,0.16
	l-0.279,0.62l-0.41,0.1l-0.18-0.61l0.68-0.45l-0.2-0.67l-0.591-0.37l-0.859,0.08l-0.41,0.33l-0.43,1.68l-1.439,1.06l-1.291,0.1
	l-0.35,0.33l-0.311,3.94l-0.399,0.48l-0.94,0.03l-1.959,0.87l-0.9,1.89l-0.391,0.32l-1.02-0.8l-1.141,0.22l-0.899-0.71l-1.08-2.72
	l-0.09-0.86l0.409-1.77l1.351-3.03v-1.05l0.771,0.08l0.289-0.59l0.311-2.7l-0.4-1.98l-1.899-2.94l-0.671-0.36l-1.299-0.12
	l-0.511-1.33l-0.85-0.88l-1.14-0.41l-0.391-0.73l-0.189-1.39l0.31-1.12l0.94-1.03l0.33-0.95l0.029-2.65l-0.49-2.23l0.92-1.45
	l1.121-0.62l2.279-0.06l0.609-0.91l1.391-0.729l0.85-1.92l0.82,0.57l0.561,0.97l0.89-0.23l0.09-1.39l0.82-0.84L298.393,109.98
	L298.393,109.98z M281.233,129.72l-0.291,2.22l-0.39,0.63l-0.649,0.23l-0.021,0.36l-0.61-0.54l0.061-1.71l-0.42-1.11l0.74-1.09
	l1.909-0.38l0.46-0.52l0.03,0.64L281.233,129.72L281.233,129.72z"/>
<path id="JP-34" fill="#E95A59" stroke="#898989" stroke-miterlimit="10" d="M145.563,329.351l-0.78-0.701l-1.45,1.75l0.31,0.9
	l0.76-0.199l0.32,0.31l-0.15,0.21l-0.7,0.529l-0.28-0.279l-1.54,0.26l-0.18-0.59l1.14-0.63l-0.25-0.46l0.14-0.631l0.53-0.439
	l0.08-0.97l-0.71-1.729l0.15-0.971l-1.31-0.65l-2.28,1.041l-0.02,0.369l-1.73,1.61l-0.21,0.51l0.27,0.15l0,0l-0.33,0.19l-1.28-0.311
	l-0.5-1.46l0.08-0.63l-0.92-0.78l-0.24-1.36l0.17-0.81l-0.3-0.681l0,0l-0.49-0.629l0.3-0.641l0.6-0.18l0.63-0.68l0.21-1.78l0.7-1.03
	l-0.55-0.34l0.3-0.48l1.45-0.859l0.31-1.141l0.79,0.11l0.4,0.479l0.21-0.439l1.24-0.13l0.52,0.42l0.51-0.431l-0.07-0.25l0.41-0.14
	l0.25,0.41l1.63,0.13l1.47-1.06l1.76-0.14l-0.01-0.871l-0.69-0.209l-0.38-0.471l0.85-1l1.19-0.25l2.4-3.33l0.4-0.07l1.15,0.701
	l0.79-0.621l0.98,0.791l1.42-0.42l0.58,0.219l0,0v0.261l2.1-0.319l0.42,0.5l0,0l1.01,1.219l-0.46,1.211l-0.01,1.6l1.6,2l-0.29,1.12
	l0.41,1.899l-0.01,1.381l1.21,1.649l0.12,1.74l0,0l-0.45,1.239l-0.88,0.091l-0.04,0.899l-0.33,0.311l-2.4-0.51l-0.04-0.211
	l0.57-0.189l-0.04-0.6l-0.56-0.211l0.07,0.431l-0.66,0.3l-1.65,0.67l-0.74-0.09l-0.23,0.98l-1.26,0.39l-1.28-0.21l-1.15,0.26
	l-0.35,0.57l-0.55,0.26l-0.25-0.561l-0.71,0.08l-0.26,0.86l-0.45-0.149l-0.04,0.979l-1.16,0.08L145.563,329.351L145.563,329.351z"/>
<path id="JP-08" fill="#E95A59" stroke="#898989" stroke-miterlimit="10" d="M301.903,278.721l-0.101,2.119l0.89,3.27l2.68,5.5
	l1.631,2.49l0.82,0.471l0.039,0.449l0,0l-2.5-1.539l-1.109-1.53l-1.23-0.261l-1.13-0.969l-0.909,0.039l-1.08-0.52l-2.011,0.52
	l-0.86,0.82l-0.799-0.23l-0.591,0.4l-0.86-0.109l-1.02,0.409l-0.58-0.72l-2.46-0.859l-1.04-0.701l-0.199-0.709l-0.721-0.24
	l-1.63-2.01l-0.33-0.84l-0.42-0.031l0,0l-0.39,0.351l-0.391-0.101l-0.869-1.959l0.17-0.891l0,0l0.729-0.06l1.649-0.87l0.551-1.689
	l1.13,0.279l0.12-0.88l1-0.47l0.13-0.45l1.56-0.08l0.26-0.13l0.051-0.52l0.67,0.239l0.41-0.46l0.439-0.02l0.28,0.39l0.67-0.21
	l0.21-1.17l0.92-1.85l-0.02-1.811l-0.57-1.95l0.28-0.38l0.95-0.21l0.1-0.31l-0.63-1l0.22-1.301l-0.279-0.99l0.09-1.989l0,0
	l0.55,0.03l0.76,1.02l0.819,0.25l0.33,1.16l1.141,0.42l0.43,0.57l1.461-1.4l1.119-0.49l-0.46-1.3l0.341-0.46l0.569,1.029
	l3.431,1.041l0,0l0.039,0.02l0,0l0.03,0.01l0,0l0.181,0.641l-0.631,0.17l-0.49,0.949l-1.18,4l-0.699,1.17l-0.781,2.271l0.16,2.88
	L301.903,278.721L301.903,278.721z"/>
<path id="JP-17" fill="#E95A59" stroke="#898989" stroke-miterlimit="10" d="M226.112,259.561l-0.06-1.291l-0.319-0.14l-0.361,0.34
	l-0.299-0.28l0.609-2.33l0.4-0.35v-1.67l0.35-0.38l1.439-1.17l1.131-0.51l1.13,0.28l2.899-1.48l0.42-0.58l0.98-0.48l1.27-0.17
	l1.32-0.71l1.03,0.13l0.47,0.66l-0.24,0.47l0.41,0.81l-0.609,0.29l-1.01-0.04l-0.53,0.36l-0.28,1.17l0.6,1.05l-0.66,0.98
	l-1.789-0.05l-0.891,0.5l-0.57,1.49l-1.159,0.86l-0.56-0.53l-0.49-0.08l0.17-0.61h-0.35l-1.461,2.17l0.54,0.23l-0.17,0.62
	l-0.51,0.12l0.12,0.43l-0.26,0.391l0.56,0.09l0.56-0.57l1.131,1.109l0.75-0.649l0.199-0.681h0.561l0.039,3.49l0,0l-1.239-0.1
	l-0.72,0.26l-1.4,1.37l-0.6,3.49l-0.551,0.649l-0.16,0.98l0.23,0.46l-0.76,1.229l0.189,1.131l0.461,0.58l-0.75,2.959l0.449,1.881
	l-0.32,0.42l0.141,0.88l0,0l0.25,0.58l0.76,0.43l0.04,0.39l-0.94,1.681l-0.6,0.229l0.221,0.73l-0.5,1.09l0,0l-1.891,0.48
	l-0.24-0.621l-1.859-1.459l-1.75,0.42l-0.471-0.051l-0.649-0.76l-0.899,0.131l-0.41-0.381l-0.25-1.25l-1.681-1.59l0,0l1.101-1.4
	l0.92-0.319l1.41-1.36l4.47-6.029l1.09-1.971l1.33-3.8l0.04-2.3l-0.95-1.48L226.112,259.561L226.112,259.561z"/>
<path id="JP-03" fill="#E95A59" stroke="#898989" stroke-miterlimit="10" d="M328.243,204.61l0.42,0.16l0.05,0.45l-0.83-0.04
	l0.53,0.53l0.5-0.01l0.33,0.68l-1.03,0.43l-0.729-0.03l0.01,0.36l0.49,0.27l0.549-0.12l0.011,0.24l-0.66,0.53l-0.74-0.03l-0.26,0.27
	l1.67,1.04l-0.86,0.3l-1.26-0.53l0.21,0.97l1.021,0.26l-1.221,0.18l0.74,0.57l-0.27,0.28l-1.09-0.08l-0.471,0.25l-0.42-0.47
	l0.04-0.57l-0.351-0.17l0.061,0.61l-0.3,0.44l0.69,0.86l-0.431,0.06l0.11,0.91l-0.471,0.34l-0.72-0.96l0.25-0.53l-0.2-0.19
	l-0.92,0.09l0.16,0.75l0,0l-1.17-0.49l-1.439-0.13l-0.24,0.52l0.109,1.78l-0.68,0.7l0.1,0.51l-0.5,1.94l-2.449-1l-0.9,0.87
	l-0.17,0.7l-0.52,0.18l-1.771-1.01l-0.47-1.09l0.59-0.55l-0.25-0.5l-0.721-0.2l-2.209,0.25l-0.551-0.81l-1.439-0.48l-1.221-0.91
	l-0.949,0.14l0,0l-0.08-1.15l0.79-1.37l-0.14-0.4l-0.971-0.38l0.28-0.97l-0.271-0.22l0.471-0.83l0.6-0.3l-0.85-0.44l0.33-1.06
	l-1.121-0.77l-0.529-0.75l0.15-0.92l-0.601-1.25l-0.39-0.09l0.05-0.65l0.45-0.12l-0.051-0.81l0.781-0.85l0.43-1.34l-0.211-0.72
	l0.42-0.11l0.611-0.86l0.27,0.03l0.51-1.19l-0.13-1.08l-0.66-1.17l0.39-0.14l0.82-1.47l-1.119-0.66l-0.07-1.06l0.82-0.45l0.489,0.48
	l0.56-0.18l-0.619-2.5l0.05-2.68l0.52-0.46l0.15-1.56l-0.4-0.49l0.81-1.11l0.611-0.22l0.399-0.57l0,0l0.46,0.68l0.939,0.01l1-0.78
	l0.461-0.02l0.039-0.72l0.74-0.5l1.52-0.38l1.961-1.49l0.68,1.08l1.721-1.1l0.68-0.09l1.24,0.77l0.89-0.69l0.11-0.83l1.39-0.62
	l0.47-0.54l0,0l1.37,2.04l1.54,3.46l-0.98,1.08l1.391,0.6l0.46,0.64l-0.12,0.25l-0.49,0.01l-0.359,0.54l0.109,0.98l0.33,0.48
	l0.51,0.17l0.49,0.89l0.689,0.12l0.4,0.7l-0.32,1.6l0.721,1.21l0.23,2.98l-0.421,1.69l0.44,0.07l-0.85,2.57h0.25l1.33-1.8l0.02,2.02
	l0.6,0.08l0.29,0.7l-0.149,0.36l-0.621,0.08l-0.859,1.17l-0.7,0.25l0.431,0.88l1.16-1.13l0.31-0.05l0.2,0.37l-0.43,1.33l-1.121,0.26
	l-0.89,0.6l-0.81,1.19l0.34,0.35l0.79-0.42l0.44,0.54l-1.701,0.29L328.243,204.61L328.243,204.61z"/>
<path id="JP-39" fill="#E95A59" stroke="#898989" stroke-miterlimit="10" d="M154.893,356.07l-0.24,1.029l-1.01-0.35l-0.6,0.44
	l-0.44,1.59l0.34,1.66l-1.14,0.479l-0.02,1.101l1.03,0.63l0.33,1.479l-0.31,0.05l-1.68-1.5l-0.77-0.109h-0.35l-1.21,1.04l-0.59-0.36
	l-0.28,0.2l-0.91-1.061l-1.59,0.881l-0.09-0.841l0.68-1.01l-0.05-0.359l1.16-1.261l-0.24-0.38l-0.83,0.07l0.05-0.38l0.41-0.101
	l0.01-1.33l-0.51-1.25l0.2-0.92l-0.76-0.859l-0.27-0.88l0.34-0.37l1.05,1.18l0.19-0.07l0.85-1.38l0.6-0.17l0.49-1.66l1.21-0.42
	l0.89-0.67l-0.04-0.57l-0.71-0.51l-1.08-2.18l0.73-0.41l2.17,0.26l1.2-0.34l0.94-1.42l-0.32-0.8l0.62-1.84l0.83-0.38l0.06-0.551
	l0.75-0.899l0.65-1.48l0.54,0.33l0.52-0.189l0.59-1.011l4.34,0.04l0.97-1.2l0.71,0.301l0.47-0.33h1.06l0,0l0.37,0.54l1.34,0.52
	l1.81-0.17l0.65,0.9l0.79,0.319l0.61-0.199l0.42-0.811l0.39-0.13l0.25,0.46l0.7-0.17l0.51,1.26l0.1,2l1.97,0.05l0.23,0.801
	l-0.47,0.54l0.1,0.47l0.78,1.189l2.11,0.221l0,0l-1.88,3.58l-0.65,3.569l-0.74-1.21h-0.61l-0.12-0.729l-0.98-1l-0.43-1.03
	l-1.41-0.68l-0.51-1.08l-3.23-0.601l-0.45-0.55l-3.15,0.5l-0.25,0.47l-2.33,1.171l0.02,0.64l-2.19,0.41l-0.55,1.069l-0.25-0.579
	l-0.92,0.3l0.08,0.62l-0.27,0.279l0.21,0.44l-0.34,0.8l0.34-0.09l0.07,0.53l-0.33,0.189l0.19,0.561l-0.9,0.939l0.25,0.73
	l-0.24,0.149l-0.07-0.399l-0.44,0.029L154.893,356.07L154.893,356.07z"/>
<path id="JP-37" fill="#E95A59" stroke="#898989" stroke-miterlimit="10" d="M168.063,327.229l2.14-1.22l0.18-0.96l2.08,0.7
	l1.61,0.069l1.07-1.199l0.53,0.38l-0.19,0.96l0.18,0.37l0.36,0.06l0.13-0.399l0.45-0.091l1.11,0.23l-0.01,0.41l-0.39,0.311
	l0.19,0.479l1.13,0.26l0.82,0.63l0.39-0.06l1.37,1.05l0,0l-0.16,0.96l-0.42,0.22l-1.09-0.58l-0.28,0.301l-1.63-0.26l-1.7,0.18
	l-0.74,0.58l0.06,0.42l-0.32,0.34l-1.24,0.141l-1.17,0.909h-0.47l-0.86-0.97l-1.38,0.25l-0.76,0.29l-0.28,0.5l-0.58-0.19l-1,0.84
	l-0.14,0.51l-0.62,0.221l0,0l-1.88-0.74l0.69-0.5l0.33-3.08l-1.51-1.21l0.07-0.329l0.31-0.091l1.59,0.8l0.55-0.17L168.063,327.229
	L168.063,327.229z"/>
<path id="JP-43" fill="#E95A59" stroke="#898989" stroke-miterlimit="10" d="M108.013,378.63l-1.25-0.649l-0.26-0.49l-0.57-0.13
	l-0.4-0.71l-0.54,0.76l-0.91,0.41l-0.84-0.011l-0.6,0.551l-1.04-0.16l-0.32-0.62l-0.54-0.26l0,0l0.18-1.08l1.04-1.13l1.25-2.63
	l1.66-1.671l-0.12-0.96l-0.38-0.029l-0.07-0.45l0.67,0.03l0.13-0.221l-0.9-0.55l2.44-2.42l-0.23-0.2l-1.11,0.46l-2.62,0.101
	l0.01-0.38l2.72-1.83l-0.02-1.521l0.23-0.35l-0.85-1.16l-0.77-0.18l-0.13-0.75l-1.46-0.681l-0.32-1.75l-0.57-0.479l0,0l2.14,0.08
	l-0.18-1.07l1.62-1.49l1.5,0.17l0.53-1.439l0.16,0.399l0.81-0.04l0.67,0.61l1.53,0.52l0,0l-0.01,0.29l0.87,0.171l0.6,0.79l0.63,0.05
	l0.4,0.63l0.38,0.01l0.49-0.63l0.18-0.85l-0.83-1.21l0.13-0.74l1.02-0.561l1.41,0.261l1.04,1.09l0.19,1.17l0.86,0.78l0.59,1.619
	l0.21,2.271l1.4,1.27l0,0l-1.26,0.16l-0.56,1l-0.03,0.9l-0.97,0.64l-0.2,0.931h-0.59l-0.36,0.539l-0.25,1.41l-0.46,0.34l-0.71-0.21
	l-0.29,0.721l-0.4,0.17l-0.25,1.38l0.25,1.13l0.42,0.68l0.44,0.091l0.19,1.149l0.76,0.68l-0.63,1.03l-0.56,0.03l-0.2,0.59l1.15,1.34
	l0.17,0.91l-0.88,0.11l-1.11-0.36l-0.7,1.19l-0.4,0.13l-0.85-0.351l-1,0.71L108.013,378.63L108.013,378.63z M101.993,368.85
	l0.47-0.069l-0.23,1.279l-0.54,0.761l0.28,0.09l-0.56,0.85l-0.83,0.38l-1.19-0.52l-0.9,0.08l-0.06-0.38l-0.51-0.17l-0.39,0.399
	l0.5,0.4l0.05,0.439l-0.43,0.99l-1.86,1.351l-0.23,0.859l-1.06,0.71l0.05,0.96l-0.47,0.17l-0.66-1.1l0.25-0.87l-0.73-0.21l0.65-1.42
	l-0.44-0.58l-0.02-0.72l1.19-2.41l0.18-1.13l1.39-0.65l1.41-0.149l0.24,0.279l-0.15,0.92l0.26,1.03l1.62-0.81l0.6-0.721l0.87-0.27
	l0.57,0.37L101.993,368.85L101.993,368.85z M96.823,375.97l-0.08-0.71l0.58-0.59l-0.22,0.96l0.66,1.7l-0.46,0.28l-0.47,1.239
	l-1.02-0.819l0.08-0.75l-0.34-0.36l0.14-0.87L96.823,375.97L96.823,375.97z M102.493,368.021l-0.53,0.27l-0.36-0.16l-0.22-0.87
	l0.96-0.89l0.33,0.88l-0.32,0.42L102.493,368.021z"/>
<path id="JP-14" fill="#E95A59" stroke="#898989" stroke-miterlimit="10" d="M269.413,300.75l0.41-1.13l1.789-0.83l0.461-0.65
	l0.709-0.1l0.49-0.52l0.34-0.7l0.021-2.61l0,0l0.601,0.13l0.459,0.551l0.61-0.031l0.59,0.99l0.86-0.16l2.17,0.711l1.35,1.89
	l0.301-0.029l0.189-2.021l-0.79-0.62l0.22-0.229l0.49,0.469l0.76-0.909l2.68,1.271l0.33,0.67l0.48,0.229l0.01,0.38l0,0l0.641-0.19
	l0,0h0.01l0,0h0.029l0,0h0.021l0,0l0.42,0.73l-1.489,0.78l-0.74-0.06l-0.41,0.409l0.38,0.45l0.399-0.12l0.4,0.29l-0.41,0.88
	l-0.35-0.25l-0.471,0.08l-0.1,0.39l0.49,0.26l0.27,1.32l-0.34,0.7l0.961,0.78l1.069,0.23l-0.431,1.06l-0.709,0.09l-0.65,0.55
	l0.12,0.59l0.34,0.09l-0.04,0.431l-1.34-0.03l0.15-1.18l-0.33-1.18l-0.631-0.681l0.061-0.63l-2.54-0.62l-2.45,0.341l-2.119,0.659
	l-1.16,0.931l-0.17,2.09l-0.641,0.35l0,0l-1.52-0.21l-0.131-0.68l-0.699-0.54l-0.24-1.51l0.57-0.631l0.27-0.959l-0.34-1.531
	l-0.15-0.239L269.413,300.75L269.413,300.75z"/>
<path id="JP-46" fill="#E95A59" stroke="#898989" stroke-miterlimit="10" d="M98.813,394.23l1.13-1.891l0.27-2.34l-0.2-1.07
	l-3.09-3.189l1.13-2.7l-0.18-1.09l-0.73-1.4l0.57-1.08l-0.72-0.58l0.21-0.54l0.84-0.43l0.52,0.01l0.68,0.46l1.08-0.1l0.44-0.96l0,0
	l0.54,0.26l0.32,0.62l1.04,0.16l0.6-0.55l0.84,0.01l0.91-0.41l0.54-0.76l0.4,0.71l0.57,0.13l0.26,0.49l1.25,0.649l0,0l-0.48,1
	l0.65,0.23l0.82,0.79l0.42,1.42l1.08,0.35l0.74,0.851l-0.12,1.26l-0.2,0.07l0.17,0.88l0.65,0.1l0.3,0.36l1.08,0.13l-0.18,0.61
	l0.79,0.189l0.16,1.57l0.55,0.97l0.5-0.58l0.71,0.641l0.96-0.11l0.47,0.29l0.3,0.92l-0.25,0.62l0.19,0.84l-0.62,0.66l-0.12,0.72l0,0
	l-1.17-0.42l-0.99,0.78l-0.7,1.09l-0.08,0.8l1.77,0.61l0.02,0.43l-0.65,0.71l0.18,0.18l0.79-0.279l0.12,0.25l-1.27,1.13l-1.01,0.03
	l-0.21,0.84l-0.79,1.17l-1.76,0.979l-1.44,0.25l-2.74,2.051l0.36-1.36l-0.51-0.4l1.8-1.39l0.44-1.12l-0.25-0.72l0.7-0.891l0.27-1.93
	l-0.94-2.06l-0.46-0.601l-0.67-0.279l0.11-1.94l-1.35,0.03l-0.87-0.82l0.68-0.91l1.05-0.2l0.74,0.62l-0.11,0.83l1.06,0.09l1.13-2.06
	l-0.49-1.101l-2.67-0.779l-0.84,0.67l-0.22,1.189l-0.93,1.341l0.15,0.54l-0.7,1.47l-0.24-0.03l-0.16,0.98l0.26,1.319l0.8,2.061
	l1.07,0.979l0.89,0.23l-0.52,1.76l-1.03,0.74l-0.62-0.49l-0.76,0.29l-0.24-0.29l0.06-0.82l-0.96-0.85l-2.12,0.02l-0.86-0.369
	l-1.86,0.409l-0.18-1.479l-0.64-0.23l0.72-0.55l-1.54-1.479l0.54-0.66l0.26,0.479l1.03,0.511L98.813,394.23L98.813,394.23z
	 M88.183,389.17l-0.77,0.47l-0.41-0.29l-0.13-0.56l0.37-0.21l0.39-1.12l1.32-0.49l0.43-1.239l0.36,0.17l-0.05,0.489l-0.63,1.15
	l-0.6,0.18l0.11,0.41l-0.38,0.41l0.26,0.32L88.183,389.17L88.183,389.17z M90.343,384.67l-0.32-0.56l0.35-0.471l0.54,0.08l0.38,0.49
	l0.85-0.19l0.12,0.381l-0.03,0.6l-0.91,0.3l-0.51-0.27l0.08-0.33l-0.4-0.33L90.343,384.67z"/>
<path id="JP-26" fill="#E95A59" stroke="#898989" stroke-miterlimit="10" d="M199.532,309.31l0.17-0.529l0.371-0.211l-0.291-1.26
	l-0.97-0.49l-0.86,0.181l-0.039-0.739l-0.221-0.061l-0.81-0.04l-0.42,0.36l-0.56-0.24l0.25-0.551l-0.86-0.83l-0.021-0.77
	l-1.02-0.029l-0.77,0.47l-1.32-1.14l-1.49-0.61l-0.02-1.261l0.369-1l1.141,0.551l0.91-0.521l0.01-2.63l-0.33-0.54l-1.33,0.66
	l-0.721-0.181l-0.209-0.609l-0.86-0.8l-0.021-2.02l0,0l0.26,0.299l0.971-0.02l0.59-0.3l0.45-0.78l0.81,0.061l1.92-1.351l1.891-0.6
	l1.08,0.68l0.66,1.2l-1.07,1.01l-0.189,0.74l-1.091,1.32l0.06,0.6l0.301-0.01l0.59-0.971l0.609,0.34l0.131,0.17l-0.641,0.551
	l1.35,0.61l0.25-0.33l0.141,1.38l0.48-0.48l0.84,0.21l0.05-0.51l-1.261-0.79l0.851-0.68l0.931-0.11l0.149-0.58l0.351-0.01
	l0.01,0.569l0.41,0.251l0,0l-0.41,0.89l0.52,0.42l-0.29,1.011l1.31,1.209l0.131,0.87l1.73,0.19l1.5,0.59l1.369-0.26l0,0l1.18,1.84
	l0.42-0.01l-0.379,1.439l0.43,2.11l-0.311,1.739l-0.34,0.25l0.29,1.17l0.89,1.511l-0.24,1.069l0.711,0.471l0.729-0.38l0.13,0.88
	l0.311-0.051l0.3,0.371l0.399-0.15l0.61,0.6l-0.26,0.26l0.149,0.41l0,0l0.451,1.201l0,0l-0.341,0.75l-0.579-0.08l-0.49-0.67
	l-0.99-0.011l0.08-0.36l-0.74,1.131l-0.73,0.08l-1.92-0.521l-0.52-1.22l0,0l0.279-0.62l-1.02-1.15l-0.311-1.06l-1.239-1.15v-0.619
	l-0.75-0.021l-0.261,0.68l0.381,0.42l-0.79,0.261l-0.69-0.73l-0.25,0.109l-0.07-1.159l-2.159-0.601L199.532,309.31z"/>
<path id="JP-24" fill="#E95A59" stroke="#898989" stroke-miterlimit="10" d="M225.622,327.28l-0.189,0.13l0.66-1.2l-0.57-0.33
	l-0.66,1.41l-1.1,0.74l-0.37,0.05l-0.271-0.79l-0.279,0.09l-0.23,0.84l-0.09-0.689l-0.699-0.01l0.279,0.939l-0.22,0.24l-2.95,0.72
	l-0.41-0.11l-0.64,0.551l-0.55,1.01l0.35,0.609l0.42-0.06l-0.35,0.69l-0.61,0.1l-0.37-0.54l-0.41,0.11l0.181,0.32l-0.7,0.239
	l0.18,0.32l0.68-0.101l0.011,0.68l0.72,0.371l-0.17,1.199l-0.66,0.09l-0.779,1.131l-0.94,0.18l-0.41,0.66l-0.61-0.03l-1.06,1.88
	l-0.72,2l0,0l-1.291-0.27l-1.699-1.94l0.07-1.92l0,0l1.1-1.72l1.21-0.391l0.83-1.119l1.62,0.25l-0.141-1.33l0.24-0.271l0.12-1.75
	l-0.37-0.68l0.73-1.36l-0.69-1.15l0.671-0.359l-1.16-1.85l0.5-0.95l2.18-0.32l0.39-0.94l-0.29-0.959l-0.65,0.26l-0.459-1.01
	l-0.82,0.27l-1.04-0.51l-0.261-0.41l0.44-1l-0.05-0.6l0.38-0.521l-0.8-1.569l0,0l-0.45-1.211l0,0l1.341-0.55l-0.07-0.51l0.77-0.63
	l-0.08-0.25l-0.619-0.051l-0.07-0.25l0.47-0.39l0.319,0.38l1.021-0.02l1.34,0.66l2.33-1.131l0.21-0.92l0.79-1.1l0.04-1.38l0.73-2.5
	l-0.711-0.729l-0.08-0.851l0,0l0,0l0,0l2.211-0.95l1.699,2.49l1.08,0.12l0,0l0.32,1.21l0.971,1.57l0,0l-0.761,0.199l-0.92,0.69
	l-0.36,1.021l0.26,1.119l-1.93,2.95l-0.56,1.63l0.06,0.66l0.67,0.29l-0.379,1.33l2.1,0.61l0.279,0.68l1.28,0.47l1.08,0.81
	l1.181,0.031l0.219,0.649l0.561,0.13l-0.21,0.28l0.16,0.28l0.71-0.131l0.279,0.291l0.08,0.729l-1.129,0.67l0.109,0.33l0.63,0.14
	l-0.63,0.71l0.29,0.47l-0.46,1.271l-0.971,0.271l-1.369-0.471l1.08-0.16l0.539,0.271l0.07-0.65l-0.479-0.12l-0.271,0.2l-1.459-0.34
	L225.622,327.28L225.622,327.28z"/>
<path id="JP-04" fill="#E95A59" stroke="#898989" stroke-miterlimit="10" d="M311.673,228.3l-0.41,0.71l0.32,0.25l0.34-0.15
	l0.18,0.65l-1.26,0.75l-1.71,3.62l-0.399,3.7l0.319,1.95l0,0l-0.69-0.18l-0.72,0.27l0.03,2.17l-0.13,0.22l-1.58-0.06l0.47,0.39
	l-0.15,0.16l-1.209-0.27l-0.631-0.5l-0.279-0.75l0.18-1.14l-0.561-0.46l-0.819-0.28l-2.65,0.27l-0.37-1.09l-1.14-0.69l-1.13,0.57
	l-1.391-0.66l0,0l-0.06-1.98l1.72-0.01l0.99-0.55l0.189-1.02l1.111-1.58l-0.23-1.23l0.16-1.02l1.05-1.32l-0.16-0.6l1.09-1.14
	l0.61-1.6l-0.2-0.7l-0.601-0.39l-0.27-0.91l0.38-0.65l-0.03-0.54l-0.609-1.37l0.1-0.23l0.66,0.35l0.4-0.1l0.43-1.15l-0.221-0.97
	l0.681-1.1l-0.83-0.45l-0.19-1.06l-1.06-1.02l0.229-0.35l0,0l0.271,0.18l1.761-0.36l1.639-1.57l0.711-0.17l0,0l0.949-0.14
	l1.221,0.91l1.439,0.48l0.551,0.81l2.209-0.25l0.721,0.2l0.25,0.5l-0.59,0.55l0.47,1.09l1.771,1.01l0.52-0.18l0.17-0.7l0.9-0.87
	l2.449,1l0.5-1.94l-0.1-0.51l0.68-0.7l-0.109-1.78l0.24-0.52l1.439,0.13l1.17,0.49l0,0l0.85,2.85l-0.379-0.12l-0.511-0.82l-0.69,0.2
	l-0.09,1.67l-1.359,0.84l-0.15,0.56l1.02,0.68l-0.049,1.21l-0.711-0.64l-1.01,0.94l-0.6,0.18l-0.03,0.72l1.72,0.21l-0.119,0.68
	l-0.721,0.64l-0.47,0.05l0.03,0.49l0.449,0.2l0.16,0.54l0.48-0.17l0.609,0.36l-0.289,0.95l-0.471-0.65l-0.359,0.11v1.65l-0.93-0.02
	l0.359,0.32l0.12,0.94l1.329-0.16l0.031,0.29l-0.66,0.12l0.689,1.8l-0.34,0.98l-1.46-1.06l0.26-0.52l-0.93-0.27l0.26-0.45l0.57-0.22
	l-0.54-0.64l-1.13,0.38l-0.171-0.66l-0.27-0.11l-0.97-0.06l-1.56,0.45l-1.25,0.84l0.119,0.92l-0.539,0.17l-0.07-1.38l-0.92-0.12
	l-0.51,0.31L311.673,228.3L311.673,228.3z"/>
<path id="JP-45" fill="#E95A59" stroke="#898989" stroke-miterlimit="10" d="M123.293,379.87l-1,3.38l-0.15,1.45l0.83,1.17
	l-0.56,1.56l0.06,2.021l-0.79,0.46l-0.9,2.09l0.24,0.8l-0.55,0.34l0.19,0.96l-0.78,0.73l0.34,0.71l-0.51,0.03l-0.52-0.46l-0.88,0.08
	l-0.68-1.511l-1.05-0.26l0,0l0.12-0.72l0.62-0.66l-0.19-0.84l0.25-0.62l-0.3-0.92l-0.47-0.29l-0.96,0.109l-0.71-0.64l-0.5,0.58
	l-0.55-0.97l-0.16-1.57l-0.79-0.19l0.18-0.609l-1.08-0.13l-0.3-0.36l-0.65-0.1l-0.17-0.88l0.2-0.07l0.12-1.26l-0.74-0.851
	l-1.08-0.35l-0.42-1.42l-0.82-0.79l-0.65-0.23l0.48-1l0,0l2.57,0.05l1-0.71l0.85,0.351l0.4-0.13l0.7-1.19l1.11,0.36l0.88-0.11
	l-0.17-0.91l-1.15-1.34l0.2-0.59l0.56-0.03l0.63-1.029l-0.76-0.681l-0.19-1.149l-0.44-0.091l-0.42-0.68l-0.25-1.13l0.25-1.38
	l0.4-0.17l0.29-0.72l0.71,0.21l0.46-0.341l0.25-1.409l0.36-0.54h0.59l0.2-0.931l0.97-0.64l0.03-0.9l0.56-1l1.26-0.16l0,0l0.48,0.58
	l0.38,0.011l2.02-0.7l0.83,0.859l-0.18,0.471l0.19,0.29l0.9,0.3l0.52-0.44l2.23,0.021l0.49-0.58l0.15-0.74l0.8-0.15l1.64,0.62
	l-0.26,1.561l0.56,0.01l0,0l-0.23,0.521l-1.56,0.97l-0.59,1.67l-1.08,0.53l-0.4,0.869l0.23,0.631l0.73,0.529l-0.66,0.54l-0.9,0.17
	l0.19,0.551l0.59,0.35l-0.92,0.36l-1.17,2.779L123.293,379.87L123.293,379.87z"/>
<path id="JP-15" fill="#E95A59" stroke="#898989" stroke-miterlimit="10" d="M255.473,257.67l1.851-1.22l2.56-2.64l2.31-1.3
	l2.291-3.85l0.84-0.58l0.68-1.18l1.38-4.61l0.91-1.1l4.069-2.93l2.381-0.63l1.709-1.11l1.75-1.88l1.24-2l0.41-1.59l0.131-3.88
	l1.85-3.75l0,0l1.81,0.96l1.479,0.32l0.24,0.29l-0.399,1.99l0.8,1.13l1.84,0.48l1.15,1.23l-0.79,1.59l-1.37,0.86l-1.58-0.22
	l-0.52,0.82l0.16,1.31l-0.34,0.82l0.35,0.76l-0.69,0.51l-0.59,3.17l0.66,1.16l0.659,0.32l0.451-0.13l0.449,0.77l0,0l-1.58,1.71
	l-0.709,1.3l0.129,0.24l-1.529,1.04l-0.03,0.73l0.42,1.03l-0.09,0.81l0.38,0.82l-0.48,0.23l-1.26-0.22l-0.369,0.24l-0.391-0.32
	l-0.47,0.04l-0.41,0.16l-0.32,1.19l-0.68-0.24l-0.55,0.29l-2.15,0.24l-0.57,0.92l0.67,0.56l-0.14,1.19l-0.2,1.16l-0.97,1.4l0.59,0.8
	l0.681,0.16l0.47,0.93l-0.351,1.28l0.42,1.391l-0.22,0.779l0.11,1.34l-0.24,0.42l0,0l-0.23-0.34l-0.92-0.07l-0.109-0.76l-1.54-1.55
	l-0.12,0.96l-0.82,0.73l-1.63,0.279l0.271,1.93l-0.1,0.25l-0.841-0.1l-0.29,0.95l0.25,0.44l-1.49,0.619l-0.649-0.029l0.11,1
	l-0.791,0.67l-1.199-0.44l-0.36,0.63l-0.25-0.16l0,0l-0.12-0.479l-0.38-0.25l0.521-0.851l-0.23-0.459l0.141-0.73l-0.98-0.45
	l-1.03-1.09l-0.04-1.55l-0.42-0.939l-0.811-0.23l-2.56,0.81l-0.729,1.56l-1.19,0.531l-0.26,1.649l-0.25,0.04l-0.29-0.63l-0.85-0.06
	l-1.011,0.659l-1.239,0.021l-0.931,1.06l-0.95-0.69l0.551-1.289l-0.371-0.561l-1.859-0.39l-1.01,0.09l0.08,1.29l-0.78,1.311
	l-1.37,1.049l0,0l-0.59-1.68v-0.77l-0.391-0.6l-0.029-1.19l-0.82-0.25l-0.699-0.81l0,0l5.42-1.98l1.81-1.33l0.86-0.3l0.92-1.1
	l1.109,0.28L255.473,257.67L255.473,257.67z M260.473,232.9l-0.59,1.26l0.19,1.07l0.699,0.3l1.61-0.65l0.2,0.25l-1.42,3.93
	l-2.75,2.23l-1.101,0.06l-1.01,0.61l-0.74-0.15l-0.21-0.47l1.311-0.57l0.34-0.84l-0.1-0.85l1.109-1l0.23-0.89l-0.25,0.41
	l-0.521-0.58l-0.61-0.1l-0.56,1.05l-0.41-0.24l0.011-0.88l-0.23-0.15l0.35-0.35l0.03-1.37l0.979-1.25l0.701-1.59l0.779-0.38
	l0.68-0.99l0.711-0.18l0.459-1.54l1.09-0.26l-0.439,3.21L260.473,232.9z"/>
<path id="JP-20" fill="#E95A59" stroke="#898989" stroke-miterlimit="10" d="M242.713,303.5l-0.011-0.53l0.841-0.65l-0.261-1.27
	l0.871-0.289l-0.711-0.98l0.65-0.7v-0.91l-0.57-0.54l-1.07,0.32l-0.31-0.551l0.07-1.1l-0.39-0.45l0.43-1.279l-0.78-0.7l-0.8-1.79
	l-1.23-0.37l-0.05-0.51l-1.04-0.011l-0.29-0.39l0.11-0.54l0.59-0.25l0.35-1.06l1.15-0.351l0.33,0.33l0.42-0.07l0.52-1.06l0.44-0.1
	l0.37-0.92l1-0.761l0.39-1.569l-0.72-0.25l-0.46-0.5l0.01-0.81l0.75-0.711l0.05-0.52l-0.38-0.551l1.39-1.81l0.091-0.78l-0.091-0.529
	l-1.029-0.66l-0.13-0.51l0,0l0.899-0.86l0.42-0.81l-0.02-0.75l0.391-0.53l0.609-0.17l-0.12-0.49l-0.21,0.04l0.109-0.77l1.181-0.7
	l0.2-4.181l0,0l1.369-1.05l0.781-1.31l-0.08-1.29l1.01-0.091l1.859,0.391l0.371,0.561l-0.551,1.299l0.95,0.69l0.93-1.06l1.24-0.03
	l1.01-0.649l0.851,0.06l0.289,0.62l0.24-0.04l0.26-1.65l1.19-0.53l0.729-1.569l2.57-0.81l0.811,0.229l0.42,0.94l0.04,1.549
	l1.03,1.091l0.979,0.45l-0.14,0.729l0.23,0.45l-0.521,0.859l0.38,0.24l0.12,0.48l0,0l-1.55,0.83l-1.791,0.359l-0.01,1.09
	l-0.959,0.16l-0.961,1.181l0.021,0.989l-0.601,1.66l0.061,1.301l1.25,0.74l0.43,0.069l0.21-0.31l0.88,0.25l0.44-0.4l0.7-0.1
	l0.83,0.25l0.289,1.149l-0.069,1.479l-1.03,0.681l0.23,1.11l0.42,0.439l-0.03,0.811l-0.45,0.479l-0.46-0.33l-0.159,0.171l0.439,0.76
	l0.65,0.08l0.279,0.67l-0.33,0.35l0.381,1.77l0.609,0.19l0.359,0.521l0.361-0.09l0,0l-0.101,0.459l0.521,1.051l-0.201,0.52l0,0
	l-0.399-0.01l-0.729,0.939l-0.971,0.01l-0.54-1.14l-1.76-0.03l-0.22,0.41l-0.48,0.09l-0.48-0.529l0.011-0.67l-1.431-0.58l-1.77,2.71
	l-0.72-0.62l-0.2,0.12l-0.971,1.97l0.881,0.86l-1,1.1l0.73,1.771l0,0l-0.58,1.64l-0.36-0.14l-0.56,0.649l0.33,0.26l-0.41,0.561
	l0.42,1.311l-0.74,0.26v0.67l0.529,0.67l-0.14,0.72l-1.649,0.63l-1.211,1.01l-1.279,0.641l-0.21,0.43l-0.511,0.01l-0.459,0.931
	l-1.07,0.11l0,0l-0.84,0.26l-0.221-0.391l-1.55-0.3l-0.86,0.56l-1.25,0.261v-0.511l-0.629-0.81L242.713,303.5z"/>
<path id="JP-29" fill="#E95A59" stroke="#898989" stroke-miterlimit="10" d="M212.823,316.59l0.799,1.57l-0.379,0.521l0.05,0.59
	l-0.431,1.01l0.26,0.41l1.031,0.5l0.819-0.271l0.47,1.011l0.65-0.271l0.29,0.96l-0.39,0.95l-2.181,0.319l-0.5,0.95l1.15,1.851
	l-0.66,0.359l0.69,1.16l-0.721,1.36l0.37,0.68l-0.13,1.75l-0.24,0.271l0.141,1.33l-1.62-0.25l-0.82,1.109l-1.21,0.391l-1.1,1.719
	l0,0l-2.01,0.341l-0.66-0.41l-0.66-0.01l-1.15,0.68l-0.22-0.569l-0.37-0.131l0.71-1.83l-0.28-0.51l-0.58-0.21l0.061-0.521
	l-1.141-0.959l0.121-0.541l1.5-1.449l0.379-0.58l-0.01-0.71l0.54-0.271l0.81,0.371l0.391-0.601l-0.21-0.649l-0.89-0.5l-0.201-1.721
	l-0.399-0.68l0,0l0.61-0.37l0.189-1.101l-0.08-1.17l-0.529-1.25l0.57-0.9l-0.211-0.449l-0.38-0.07l0.511-2.369l0.51-0.44l0.16-1.36
	l0.35,0.061l0,0l0.52,1.22l1.92,0.521l0.73-0.08l0.74-1.131l-0.08,0.36l0.99,0.01l0.49,0.671l0.58,0.079L212.823,316.59z"/>
<path id="JP-42" fill="#E95A59" stroke="#898989" stroke-miterlimit="10" d="M98.743,360.65l0.95-0.141l0.49,0.36l0.88,1.71v1.1
	l-0.61,0.8l0.23,0.311l-0.21,0.49l-1.61,0.6l-0.66,0.85l-1.27,0.471l0.03-0.681l-0.8-0.489l0.08-0.87l1.41-1.12l0.06-0.61
	l-0.47-0.25l0.19-0.42l-0.26-0.29l-1.86-0.029l-1.08,0.71l-1.53-0.091l-0.19,0.99l-0.94,1.49l-0.96,0.57l-0.84,1.1l-1.31,0.48
	l0.24-0.54l0.59-0.24l1.01-3.05l-1.29-1.53l0.19-0.45l-0.56-0.09l-0.18,0.41l-0.9-0.87l-0.6-1.76l-0.63-0.82l-0.07-0.57l0.46-0.729
	l0.23-1.58l0.97-0.271l0.56,0.721l-0.15,1.17l0.39,0.09l0.25-0.42l1.01,0.62l0.02,1.63l-0.38-0.01l0.15,0.72l-0.32,0.66l0.59,0.06
	l0.59,0.76l0.97-1.13l1.63,1.03l0.57-0.25l-1.53-1.8l0.39-1.47l-0.38-0.94l-1.4-0.94l-1.56,0.12l-0.83-0.39l-0.32-2.01l-0.45,0.09
	l0.22,0.81l-0.88,0.59l-0.19-0.72l0.64-0.08l-0.23-0.689l-0.82-0.061l-0.34-0.68l-0.73-0.49l-0.55,0.01l0.13-0.89l0.58-0.42
	l-0.26-1.42l0.4-1.141l0.59,0.461l0.9-0.881l0.29,0.271l-0.35,0.53l0.19,0.27l0.75,0.15l0.66-0.46l0.34,0.319l0.33-0.45l0.21,0.841
	l0,0l-0.59,0.989l1.05,1.38l0.03,1.261l1.38,0.58l1.02-0.101l0.36,0.87l-0.1,0.42l-0.52,0.101l-0.05,0.359l1.15,0.771l1.55,1.649
	l2.8,0.681l0,0l-0.05,0.6l-0.68,0.34l-0.8,0.931l0.85,0.739L98.743,360.65L98.743,360.65z M80.423,326.351l0.35-1.141l-0.56,0.71
	l-1.32-0.05l-0.5-0.301l0.52-0.139l0.28-0.44l0.13-1.99l0.67-1.351l0.41-0.18l-0.02-0.42l-0.78-0.109l-0.03-0.371l0.37-0.439
	l0.3-1.43l1.44-0.07l0.39-0.96l0.71-0.351l0.65,0.291l0.31,0.609l-0.55,1.461l0.07,1.239l-0.76,1.21l-1.3,1.23l0.57,0.97l-0.26,1.12
	l0.49,0.06l0.11,0.29l-0.88,0.74l0.03,0.4l0.38,0.16l-0.67,0.629l-0.61-0.129l-0.91,3.459l-1.37,1.09l-0.2-0.449l-0.72,0.01
	l0.76-5.439l0.48,0.299l-0.12,0.611l0.85-0.281l0.02-0.39L80.423,326.351L80.423,326.351z M70.793,363.7l0.14,1.189l0.94,0.82
	l-0.08,0.33l-1.45,0.1l-0.22-0.449l-0.74,0.25l-0.15,0.58l0.51,0.27l0.11,0.39l-0.43,0.44l-0.38-0.13l-0.35-0.67l-1.6,0.39
	l-1.11-0.51l0.27-0.82l0.2,0.3l0.96-0.41l-0.44-0.67l-0.17-1.899l0.33-0.45l0.47,0.04l0.54,0.68l2-1.13l-0.01,0.47L70.793,363.7
	L70.793,363.7z M75.973,356.51l-0.31,1.55l0.65-0.039l0.87-0.58l0.32,0.14l0.03,0.57l-1.71,1.489l0.08,1.28l-0.69-0.06l-0.13,1.09
	l-0.32-0.16l0.31-1.54l-0.46-1.31l-0.27,0.3l-0.6-0.271l0.41-0.77l0.7,0.02l-0.12-1.21l1.19-1.239l-0.16-0.961l0.38-0.989l0.16,1.34
	L75.973,356.51L75.973,356.51z M84.243,348.76l0.31,0.101l0.06-0.34l-0.55,0.01l0.15-0.38l0.63-0.08l0.16,0.66l-0.19,0.26l0.32,0.31
	l-0.47,0.21l-0.03,0.42l-0.45,0.101l0.22,0.359l-1.35,2.28l-1.85,1.04l-0.41-0.28l0.07-0.54l0.38,0.44l0.44-0.03l-0.28-0.88
	l0.92-0.52l-0.45-0.59l0.77-1.261l1.29-1.3L84.243,348.76L84.243,348.76z M71.133,361.3l0.83,0.521l-0.43,1.359l-0.75-0.489
	l-0.08-1.28L71.133,361.3z M74.073,360.92l-0.53-0.26l-0.4-0.66l0.71,0.1l-0.37-0.54l0.2-0.329l0.9,0.819l-0.11,1.23L74.073,360.92
	L74.073,360.92z M76.713,350.73l-0.02,0.42l0.32,0.14l-0.56,0.28l0.04,0.239l-1.14-0.239l-0.06-0.271l0.44-0.38l0.58-0.03
	l0.05-0.319L76.713,350.73L76.713,350.73z M72.733,362.32l-0.16-0.41l-0.35-0.08l-0.02-0.42l-0.82-0.53l0.33-0.359l0.57,0.159
	l0.26,0.74l0.37-0.81l0.18,0.069l0.13,0.431l-0.44,0.54l0.2,0.29L72.733,362.32L72.733,362.32z M81.933,348.92l0.55-1.66v2.09
	l-0.72-0.1L81.933,348.92z M85.263,346.36l-0.45,0.29l-1.1-0.061l1.17-0.93l0.54,0.35L85.263,346.36L85.263,346.36z M75.123,353.26
	l-0.23,0.13l-0.39-0.31l0.32-0.54l0.43,0.27l0.59-0.18l-0.18,0.68L75.123,353.26z"/>
<path id="JP-27" fill="#E95A59" stroke="#898989" stroke-miterlimit="10" d="M200.522,321.69l0.37-0.801l-0.64-0.14l-0.03-0.81
	l0.3-0.51l0.74-0.431l-0.46-0.229l0,0l0.54-1.211l-0.15-1.43l-0.74-1.24l0.471-2.039l-0.43-0.25l0.91-0.511l-0.961-0.14
	l-1.399-0.811l0.239-0.359l-0.08-0.971l-0.399-0.24l0.29-0.309l0.43,0.049l0,0l0.19,0.74l2.159,0.6l0.07,1.16l0.25-0.109l0.69,0.73
	l0.79-0.261l-0.38-0.42l0.26-0.681l0.75,0.021v0.61l1.24,1.15l0.3,1.06l1.029,1.159l-0.289,0.621l0,0l-0.35-0.061l-0.15,1.36
	l-0.51,0.44l-0.51,2.369l0.379,0.08l0.211,0.45l-0.57,0.899l0.529,1.261l0.08,1.159l-0.189,1.101l-0.61,0.37l0,0l-1.29,0.18
	l-1.199,0.801l-1.621-0.141l-2.06,0.74l-1.63,0.09l-1.23,0.79l-1.039,0.18l-0.431-0.04l-0.13-0.88l-0.27-0.09l0,0l2.57-0.851
	l1.84-1.68l0.969-1.49L200.522,321.69L200.522,321.69z"/>
<path id="JP-33" fill="#E95A59" stroke="#898989" stroke-miterlimit="10" d="M173.053,320.62l-1.41,1.09l-0.47,1.721l-1.96-0.541
	l-0.52,0.34l-1.84-0.34l-0.62-0.779l-1.6,0.289l-0.27,0.311l0.24,0.221l-2.22,0.76l-0.69-0.84l0,0l-0.12-1.74l-1.21-1.65l0.01-1.38
	l-0.41-1.899l0.29-1.121l-1.6-2l0.01-1.6l0.46-1.21l-1.01-1.22l0,0l0.36-0.25l0.24-0.84l0.38,0.22l1.81-0.63l-0.33-1.19l0.27-0.38
	l0.78,0.33l1.21-0.49l0.21-0.5l-0.21-0.48l0.96-0.25l0.78-2.43l1.7,0.631l1.27,0.01l1.07,0.74l0.52,0.91l0.66-0.5l0.2-0.541
	l1.16-0.49l0.03-0.479l1.5-0.43l-0.15,0.89l0.19,0.17l0.79,0.211l0.94-0.171l0.69,0.591l0.22,0.42l-0.12,0.609l0.49,0.311
	l-0.19,0.709l0.51,0.631l1.48-0.92l0.54,0.27l0.69-0.13l1.39-1.16l0.3,0.229l0,0l-0.44,0.801l0.63,0.66l-0.08,0.779l-0.67-0.07
	l-0.24,0.261l-0.24,1.101l-0.59,0.25l-0.06,0.93l-0.92,0.539l0.2,0.591l-0.15,0.909l-0.35,0.32l0.68,0.85l-0.7,1.311l0.18,0.471
	l1.08,0.959l0.54,1.371l0,0l-0.5,0.329l-0.2-0.28l-0.66-0.01l-1.76,1.98l-0.37,0.89l-0.98,0.591l-1.28,0.06L173.053,320.62z
	 M178.313,323.46l-0.37,0.061l0.68-0.711l-0.86,0.201l-0.67,1.289l-0.23-0.59l0.37-0.49l-0.11-0.24l-0.5-0.289l-1.17,0.5l-0.21-0.25
	l0.45-0.86l3.68-1.351l-0.12,0.471l0.3,0.34l-0.4,2.25l-0.4-0.52L178.313,323.46L178.313,323.46z"/>
<path id="JP-44" fill="#E95A59" stroke="#898989" stroke-miterlimit="10" d="M110.293,355.24l0.35-0.25l0.48-1.38l-0.84-0.73
	l0.03-0.62l-0.36-0.189l0.12-0.38l0.52-0.261l0.14-0.64l-0.29-0.95l-0.3-0.16l0.47-0.689l0.49-0.13l0.3-1.65l1.61-1.38l0.93-0.23
	l0.97,0.271l1.91-0.11l-0.13-0.46l0.39-0.52l-0.3-0.801l0.15-0.369l0,0l0.32-0.431l1.78,0.91l2.57,0.12l0.09-0.45l1-0.899l0.49-0.96
	l1.68-0.5l1.6,0.81l1.25,1.67l0.27,1.08l-0.09,1.79l-0.32,0.15l-0.4,1.21l-1.37-0.4l-0.18,0.29l0.5,0.65l-0.12,0.22l-0.91,0.1
	l-0.21,0.59l-0.73-0.109l-0.24-0.42l-0.71,0.149l-0.12,0.71l0.35,1.5l1.5,0.511l1.88-0.811l1.34,0.96l2.96-0.67l-1.36,2.03
	l-0.5,1.26l0.7,0.31l1.08-0.489l0.32,0.279l-0.69,0.341l-0.4,0.68l0.99,0.29l0.3,0.03l0.29-0.71l0.59,0.84l0.36-0.17l-0.03-0.511
	l0.29-0.14l0.07,0.8l-0.5,0.36l-1.03-0.11l-0.75,1.38l0.12,0.28l0.58,0.19l0.25,0.46l0.72-0.261l0.45,0.37l1.64,0.07l0.07,0.26
	l-2.11,0.271l0.17,0.77l0.61-0.02l-0.81,0.76l0.66,0.7l-1.43,1.02l-0.92-0.47l-0.25,1.53l0,0l-0.56-0.011l0.26-1.56l-1.64-0.62
	l-0.8,0.15l-0.15,0.739l-0.49,0.58l-2.23-0.02l-0.52,0.439l-0.9-0.3l-0.19-0.29l0.18-0.47l-0.83-0.86l-2.02,0.7l-0.38-0.01
	l-0.48-0.58l0,0l-1.4-1.27l-0.21-2.271l-0.59-1.62l-0.86-0.78l-0.19-1.17l-1.04-1.09l-1.41-0.26l-1.02,0.56l-0.13,0.74l0.83,1.21
	l-0.18,0.851l-0.49,0.63l-0.38-0.01l-0.4-0.631l-0.63-0.05l-0.6-0.79l-0.87-0.17L110.293,355.24L110.293,355.24z"/>
<path id="JP-41" fill="#E95A59" stroke="#898989" stroke-miterlimit="10" d="M89.773,349.95l0.67,0.96l0.16-0.92l-0.19-0.19
	l0.67-1.39l-1.75-1.34l0.48-0.15l-0.26-0.34l0.27-0.32l0.39,0.141l0.35,0.8l0.28-0.221l-0.56-1.18l-0.03-0.32l0.54-0.029l-0.2-0.88
	l0.64,0.479l0.32-0.04l0.02-0.27l0.68-0.03l0.03,0.34l0.74,0.63l-0.63,0.74l0.61,0.54l1.14,0.19l0.28-0.16l-0.05-0.33l0,0l2.63,0.08
	l0.69-0.32l0.86,0.24l0.47-0.21l1.7,1.069l0.77,0.171l0.62,0.71l0.99-0.95l0.74-0.25l0.41,0.21l-0.02,2.25l-0.51-0.03l-0.51,0.86
	l-1.85,1.42l-0.59,1.04l-0.17,1.229l0,0l-1.31-0.01l-0.2-0.52l-0.88-0.58l-0.19,0.66l-1.79,1.439l1.78,3.061l0.04,0.409l-0.42,0.03
	l0,0l-2.8-0.68l-1.55-1.65l-1.15-0.77l0.05-0.36l0.52-0.1l0.1-0.42l-0.36-0.87l-1.02,0.1l-1.38-0.58l-0.03-1.26l-1.05-1.38
	l0.59-0.99l0,0L89.773,349.95L89.773,349.95z M88.163,340.97l-0.61-0.029l-0.39-1.101l-0.37,0.5l-0.21-0.74l0.34-0.5l-0.19-0.39
	l1.06-1.34l1.37,0.5l-0.26,0.85l0.52,0.45l-0.57,0.29l0.78,0.271l-0.17,0.54l-1.09,0.05L88.163,340.97z M88.403,347.62l0.37-1
	l0.78,0.95l-0.61-0.061l-0.08,0.42l-0.48,0.23l-0.3-0.3L88.403,347.62L88.403,347.62z"/>
<path id="JP-25" fill="#E95A59" stroke="#898989" stroke-miterlimit="10" d="M220.112,305.17l0.07,0.851l0.71,0.729l-0.729,2.5
	l-0.041,1.38l-0.779,1.1l-0.21,0.92l-2.34,1.131l-1.33-0.66l-1.021,0.01l-0.33-0.38l-0.47,0.39l0.07,0.26l0.62,0.041l0.08,0.26
	l-0.771,0.62l0.07,0.52l-1.341,0.55l0,0l-0.149-0.41l0.261-0.26l-0.611-0.6l-0.399,0.15l-0.3-0.371l-0.311,0.051l-0.129-0.881
	l-0.73,0.381l-0.71-0.471l0.239-1.069l-0.89-1.511l-0.29-1.17l0.34-0.25l0.311-1.739l-0.43-2.11l0.379-1.439l-0.42,0.01l-1.18-1.84
	l0,0l0.45-0.74l0.37-0.1l0.061-0.5h0.649l0.351,0.399l0.569-0.28l1.04-2.76l0.77,0.77l0.461-0.1l0.459-0.88l1.291-0.12l0.35-1.069
	l1.1,0.319l0.141-0.75l-0.83-1.76l0.31-0.67l0.671-0.13l1.81,0.93l0,0l0.26,1.07l0.66,0.07l-0.12,1.6l0.779,0.29l0.311-0.5
	l0.551,0.71l-0.24,0.89l0.629,0.641l-0.09,1l0.53,0.85l-0.55,0.439l-0.04,1.341l-0.319,0.52l-0.021,0.931l-0.32,0.209
	L220.112,305.17z"/>
<path id="JP-32" fill="#E95A59" stroke="#898989" stroke-miterlimit="10" d="M139.143,308.97l0.28-0.789l1.23-0.931l0.08-0.67
	l0.5-0.67l2.51-1.8l1.42-0.541l0.56-0.51l0.41-0.779l0.13-1.61l-0.96-0.39l0.1-0.37l1.12-0.46l0.5,0.3l0.85-0.17l0.11-0.21
	l-0.62-0.35l1.44-0.301l0.24-0.32l2.13-0.51l1,0.041l-0.07-0.65l1.17,0.119l0.41-0.96l0.93-0.64l0.91,1.06l1.08-0.17l0.41-0.33
	l2.16,0.32l-1.21,0.3l-0.41,0.511l0.49,0.989l1.14,0.681l0,0l-0.16,2.44l-0.42,0.619l0.27,1.631l-3.1,1.379l0.02,0.291l0.61,0.129
	l0.23,0.69l-0.89,0.7l-0.17,1.54l0,0l-0.58-0.22l-1.42,0.42l-0.98-0.79l-0.79,0.62l-1.15-0.7l-0.4,0.069l-2.4,3.33l-1.19,0.25
	l-0.85,1l0.38,0.471l0.69,0.21l0.01,0.87l-1.76,0.14l-1.47,1.06l-1.63-0.129l-0.25-0.41l-0.41,0.14l0.07,0.25l-0.51,0.43l-0.52-0.42
	l-1.24,0.13l-0.21,0.44l-0.4-0.48l-0.79-0.11l-0.31,1.141l-1.45,0.859l-0.3,0.48l0.55,0.34l-0.7,1.03l-0.21,1.78l-0.63,0.68
	l-0.6,0.18l-0.3,0.641l0.49,0.63l0,0l-0.81,0.45l-0.48,0.709l-0.15,0.311l0.43,0.891l-1.12,1.58l-0.69-0.631l-0.94,0.7l-1.05,0.101
	l-0.87-0.86l-0.17-0.771l0.55-1.539l-1.87,0.039l-0.61-1.649l0.66-0.64l0.02-0.82l0.43-0.16l-0.83-2.54l0,0l1.15,0.03l1.51-0.45
	l1.33-1.521l1.13-0.82l0.23-0.659l0.63-0.2l1.16-1.24l0.75-1.24l2.86-2.379L139.143,308.97L139.143,308.97z"/>
<path id="JP-11" fill="#E95A59" stroke="#898989" stroke-miterlimit="10" d="M265.702,288.5l0.201-0.52l-0.521-1.051l0.101-0.459
	l0,0l0.75-1.011l1.229-0.021l0.92-1.01l1.521-0.399l0.459-0.78l1.53-0.07l0.421-0.76l0.02-0.93l1.23-1.971l0.699,0.051l1.689,0.859
	l0.601-0.149l0.97,0.29l0.86-0.211l1.81,1.341l2.541-0.479l0.52,0.479l0.49-0.181l0.31-0.58l0,0l0.84,0.41l0,0l-0.17,0.891
	l0.86,1.96l0.39,0.1l0.39-0.35l0,0l0.711,1.399l0.06,1.041l1.67,3.219l-0.22,1.33l-0.35,0.271l0,0l-0.921,0.07l-0.17-0.421
	L286.622,291l-0.449-0.279l-0.41,0.739l-1.779-0.31l-0.671,0.8l-0.55-0.29l-0.91,0.37l-0.279-0.87l-1.59,0.75l-1.25,0.029
	l-0.531-0.6l-0.779-0.15l-0.41-0.869l-2.1-0.15l-1.03-0.561l-1.66-0.279l-0.7-0.54l-1.39,0.58l-0.181,0.44l0,0l-1.09,0.289
	l-0.689-0.529l-1.16-0.2l-0.29-0.64L265.702,288.5z"/>
<path id="JP-22" fill="#E95A59" stroke="#898989" stroke-miterlimit="10" d="M273.233,313.41l-1.07,2.05l-1.23,1.02l-0.48,1.261
	l0.291,0.76l-0.45,0.17l-0.48-0.25l-0.409,0.19l-0.201,0.52l-1.26,0.74l-0.38-0.141l-1.079-1.02l0.229-0.29l-0.14-0.37l-0.73-0.33
	l0.01-0.81l0.74-0.729l-0.48-1.08l0.271-0.201l-0.2-1.789l0.67-0.61l-0.54-1.53l0.49-1.229l2.05,0.159l0.27-0.709l-1.779-1.59
	l-2.32-0.511l-2.74,0.82l-0.899,1.569l0.399,0.5l-0.22,0.601l-3.069,1.66l-0.801,1.34l0.18,1l-0.689,1.229l-1.52,1.15l-0.541,1.37
	l0.011,0.72l0.75,0.711l-0.091,0.219l-4.469-1.58l-2.061-0.069l-1.84,0.45l-2.66-0.61l-3.561-0.069l0,0l-0.16-2.32l0.431-1.23
	l2.75-1.539l1.28-1.921l0.029-1.06l1.461-2l0.469-0.24l-0.079-0.471l0.569-0.579l-0.51-0.5l0.311-0.979l0,0l1.07-0.111l0.459-0.93
	l0.51-0.01l0.211-0.43l1.279-0.641l1.211-1.01l1.649-0.63l0.14-0.72l-0.529-0.67v-0.67l0.74-0.26l-0.42-1.311l0.409-0.561
	l-0.329-0.26l0.559-0.649l0.361,0.14l0.579-1.64l0,0l0.94,3.18l-0.381,1.18l0.23,1.07l-0.46,0.93l0.33,1.3l0.681,0.51l0.76-0.52
	l0.76,0.36l0.689,2.69l0.69,0.5l1.24,0.119l0.72-0.63l-0.4-2.659l0.431-0.611l-0.05-1.709l0.99-0.91l0.569,1.26l1.03-0.12
	l0.449,0.97l2.801-0.47l0.369-0.271l0.701,0.07l0.67-0.39l0,0l1.51-0.03l0.15,0.24l0.35,1.52l-0.28,0.971l-0.569,0.619l0.239,1.521
	l0.7,0.54l0.13,0.68l1.521,0.211l0,0l-0.67,0.969L272.353,309l0.63,0.25l-0.13,1.33l1.03,0.83l-0.11,1.53L273.233,313.41z"/>
<path id="JP-09" fill="#E95A59" stroke="#898989" stroke-miterlimit="10" d="M295.843,263.439l-0.09,1.99l0.27,0.99l-0.22,1.301
	l0.62,1l-0.09,0.319l-0.95,0.21l-0.28,0.38l0.57,1.95l0.02,1.811l-0.92,1.859l-0.21,1.17l-0.67,0.2l-0.28-0.39l-0.449,0.02
	l-0.41,0.471l-0.68-0.24l-0.051,0.52l-0.26,0.13l-1.561,0.08l-0.129,0.45l-1,0.47l-0.121,0.88l-1.129-0.279l-0.561,1.689
	l-1.641,0.87l-0.729,0.06l0,0l-0.84-0.41l0,0l-0.511-0.789l0.091-0.28l-0.38-0.24l-1.11,0.181l-0.71-0.431l-1.01,0.29l-1.11-0.97
	l0.04-0.58l-1.05-0.78l0.181-0.96l1.189-1.55l-0.33-0.76l0.4-1.2l0.819-0.649l-0.34-0.681l-1.229,0.069l-1.471-0.739l0.18-1.37
	l0.59-0.891l-0.279-1.17l1.02-1.409l-1.02-0.44l0.58-1.54l0,0l0.939-0.43l0.711-1.021l1.35-0.24l0.92-0.75l0.63-0.09l0.229-0.43
	l0.791-0.199l0.26-0.41l2.8-0.871l0.181-0.909l1.359-0.59l2.42,0.28l2.391,1l1.02,0.979l0.23,0.93l0.85-0.05l-0.16,1.859
	L295.843,263.439z"/>
<path id="JP-13" fill="#E95A59" stroke="#898989" stroke-miterlimit="10" d="M287.532,295.08l-0.819-0.061l-0.2-0.93l-0.5,0.44
	l-0.3,1.56l0.319,0.75l0.25-0.15l0.44,0.71l-0.87-0.199l-0.93,0.29l0,0l-0.01-0.38l-0.48-0.23l-0.33-0.67l-2.68-1.271l-0.76,0.91
	l-0.49-0.47l-0.221,0.229l0.791,0.621l-0.19,2.02l-0.3,0.03l-1.35-1.89l-2.15-0.701l-0.86,0.16l-0.59-0.99l-0.61,0.031l-0.459-0.551
	l-0.601-0.13l0,0l-2.101-1.16l-1.58-3.239l0,0l0.19-0.44l1.38-0.58l0.711,0.54l1.659,0.29l1.03,0.56l2.1,0.15l0.41,0.87l0.78,0.159
	l0.53,0.601l1.25-0.04l1.59-0.75l0.279,0.87l0.92-0.37l0.551,0.29l0.67-0.8l1.779,0.32l0.41-0.75l0.451,0.279l0.52-0.14l0.17,0.42
	l0.93-0.07l0,0l1.08,2.261l0,0l0.35,0.76l-0.56,0.32l0.399,0.379l-0.83,0.57L287.532,295.08L287.532,295.08z"/>
<path id="JP-36" fill="#E95A59" stroke="#898989" stroke-miterlimit="10" d="M186.773,338.31l-2.09,0.87l-0.89,0.771l-0.18,0.51
	l-1.25,0.91l-1.19,0.7l-0.92,0.189l-0.64,1.79l-0.89-0.04l-0.21,0.471l0.26,0.14l-0.3,0.18l0,0l-2.11-0.22l-0.78-1.19l-0.1-0.47
	l0.47-0.54l-0.23-0.8l-1.97-0.05l-0.1-2l-0.51-1.26l-0.7,0.17l-0.25-0.46l-0.39,0.13l-0.42,0.81l-0.61,0.2l-0.79-0.32l-0.65-0.899
	l-1.81,0.17l-1.34-0.521l-0.37-0.54l0,0l0.56-0.899v-1.04l-0.27-0.49l0.29-0.681l0,0l0.62-0.219l0.14-0.511l1-0.84l0.58,0.19
	l0.28-0.5l0.76-0.291l1.38-0.25l0.86,0.971h0.47l1.17-0.91l1.24-0.141l0.32-0.34l-0.06-0.42l0.74-0.58l1.7-0.18l1.63,0.26
	l0.28-0.299l1.09,0.579l0.42-0.22l0.16-0.96l0,0l2.81-0.79v0.939l0.75,0.49l-0.72,2.96l0.09,1.101l0.48,0.529l0.36-0.56l0.59,1.069
	l0.63,0.36l-0.52,0.39l0.7,0.19l-0.14,0.46l-1.29,0.94l-0.09,0.33l0.27,0.21l1.98,0.04l0.14,0.21L186.773,338.31L186.773,338.31z"/>
<path id="JP-31" fill="#E95A59" stroke="#898989" stroke-miterlimit="10" d="M159.193,299.149l1.46,0.291l0.47-0.16l0.47-0.86
	l0.98-0.5l1.8-0.38l1.44,0.58l1.8,0.17l3.37-0.23l0.67-0.369l1.4,0.17l1.85-0.2l2.78-0.74l0.56-0.77l0.76-0.051l0.13-0.39l0.61-0.13
	l0,0l0.69,0.52l0.38,0.771l-0.12,1.02l0.49,1.881l0.73,0.34l-0.09,1.08l0.73,0.959l-0.15,0.431l0.26,1.16l-1.64,1.149l-0.58-0.26
	l0,0l-0.3-0.23l-1.39,1.16l-0.69,0.131l-0.54-0.271l-1.48,0.92l-0.51-0.63l0.19-0.71l-0.49-0.31l0.12-0.61l-0.22-0.42l-0.69-0.591
	l-0.94,0.171l-0.79-0.21l-0.19-0.17l0.15-0.891l-1.5,0.43l-0.03,0.48l-1.16,0.49l-0.2,0.54l-0.66,0.5l-0.52-0.91l-1.07-0.74
	l-1.27-0.01l-1.7-0.63l-0.78,2.43l-0.96,0.25l0.21,0.48l-0.21,0.5l-1.21,0.49l-0.78-0.33l-0.27,0.379l0.33,1.19l-1.81,0.63
	l-0.38-0.22l-0.24,0.84l-0.36,0.25l0,0l-0.42-0.5l-2.1,0.32v-0.261l0,0l0.17-1.539l0.89-0.7l-0.23-0.69l-0.61-0.13l-0.02-0.29
	l3.1-1.38l-0.27-1.63l0.42-0.62L159.193,299.149L159.193,299.149z"/>
<path id="JP-16" fill="#E95A59" stroke="#898989" stroke-miterlimit="10" d="M233.923,267.1l1.311,0.681l0.979-0.23l1.94,0.091
	l1.17-1.11l0.359-1.011l-0.029-1.209l0.369-0.711l1.34-0.709l2.78-0.601l0,0l0.7,0.81l0.82,0.25l0.029,1.2l0.391,0.601v0.77
	l0.59,1.68l0,0l-0.2,4.18l-1.18,0.701l-0.11,0.77l0.21-0.04l0.12,0.49l-0.609,0.17l-0.391,0.53l0.02,0.75l-0.42,0.81l-0.899,0.86
	l0,0l-0.94-0.07l-0.84-0.82l-0.71,0.34l-1.13-0.35l-0.28-0.779l-1.35,0.799l-0.21-0.039l-0.04-0.881l-0.591-0.05l-1.459,0.69
	l-0.25-0.44l-0.551,0.021l-2.08,2.02l-0.25,1.15l-1.39,1.22l-0.34-0.08l0.261-0.729l-0.341-0.771l-0.92-0.51l-0.351,0.36l-0.25-0.59
	l-0.77,0.56l-0.29,1.06l-0.579,0.08l0,0l-0.15-0.89l0.32-0.42l-0.451-1.89l0.75-2.951l-0.459-0.58l-0.19-1.129l0.771-1.23
	l-0.23-0.46l0.16-0.97l0.55-0.65l0.601-3.49l1.399-1.369l0.729-0.261l1.24,0.101l0,0l-1.33,2.289l1.42,1.561l0.69,0.5L233.923,267.1
	z"/>
<path id="JP-30" fill="#E95A59" stroke="#898989" stroke-miterlimit="10" d="M208.433,345.58l-0.54,0.38l-0.319,0.69l0.09,0.71
	l-0.48,0.08l-0.25-0.351l0.32-0.75l-0.79,0.11l-1.88-0.75l-2.35-0.38l-2.021-1.21l-0.41-0.74l0.149-0.79l-1.27-0.63l0.98-0.53
	l0.25-0.57l-1.44-1.22l-2.62-1.21l-0.68-1.41l-0.77-0.38l-1.11,0.32l0.21-2.33l1.57-0.641l0.489-0.629l-0.729-0.761l-1.12-0.25
	l0.61-0.64l0.299-0.83l0.871,0.07l0.3-0.351l-0.13-0.75l-0.75-0.2l-0.43-1.22l-1-1.08l0.129-0.479l0.36-0.141l0,0l0.271,0.09
	l0.129,0.881l0.431,0.039l1.04-0.18l1.23-0.79l1.629-0.09l2.061-0.739l1.62,0.139l1.2-0.799l1.289-0.181l0,0l0.4,0.681l0.2,1.72
	l0.89,0.5l0.211,0.659l-0.391,0.601l-0.811-0.37l-0.549,0.27l0.01,0.711l-0.381,0.57l-1.489,1.449l-0.13,0.54l1.14,0.96l-0.06,0.53
	l0.58,0.21l0.279,0.51l-0.71,1.83l0.38,0.13l0.211,0.57l1.149-0.681l0.66,0.011l0.659,0.41l2.011-0.341l0,0l-0.07,1.921l1.7,1.939
	l1.29,0.271l0,0l-0.33,0.449l-0.149,1.15l-0.961,0.26l-0.229,0.851l0.72,0.279l-0.07,0.351l-2.08,1.46L208.433,345.58
	L208.433,345.58z"/>
<path id="JP-35" fill="#E95A59" stroke="#898989" stroke-miterlimit="10" d="M123.383,333.569l-0.59-0.409l-0.35,0.88l-0.74,0.35
	l-0.29-0.199l0.15-0.59l-0.44-0.141l-0.77,1.46l-1.72,1.03l-2.18-0.78l0.08-0.79l-2.26-1.279l-0.69,0.379l-0.32,0.881l-1.84,1.779
	l-0.19-0.59l0.46-0.869l-0.03-1.681l-1.06-1.521l0.12-0.609l0.75-0.13l0.55-1.11l-0.24-1.21l-1.07-1.17l0.3-0.16l0.38-1.37
	l2.64-0.41l-0.3-0.479l-1.22-0.38l0.28-0.82l0.92,0.74l1.08-0.34l0.52,0.15l1.09,1.109l2.96-0.26l0.62-0.83l1.02,0.029l1.44-1.68
	l-0.27-0.66l0.35-0.56l0.7,0.14l0.7-0.709l0.34-0.421l0.03-0.86l0.46-0.109l0.38-0.88l0.25-0.229l0.97,0.289l0.47-0.49l0,0
	l0.83,2.541l-0.43,0.16l-0.02,0.819l-0.66,0.64l0.61,1.65l1.87-0.04l-0.55,1.54l0.17,0.77l0.87,0.86l1.05-0.101l0.94-0.699
	l0.69,0.63l1.12-1.58l-0.43-0.89l0.15-0.311l0.48-0.71l0.81-0.45l0,0l0.3,0.68l-0.17,0.811l0.24,1.36l0.92,0.78l-0.08,0.629
	l0.5,1.461l1.28,0.31l0.33-0.19l0,0l0.24,0.49l-0.29,0.521l0.37,0.47l-0.98,0.91l0.24,2.96l-0.57,0.96l-1.09,0.12l0.01,1.62
	l0.58,0.68l-0.33,0.63l-0.49-1.07l-1.43-0.729l-0.37,0.17l-3.61-2.76l-0.47,0.6l-0.03,0.551l-0.91-0.201l1.12-1.18l-1.25-0.71
	l-0.52-0.079l-1.82,0.549l-2.1,0.961L123.383,333.569L123.383,333.569z M138.523,337.19l-0.9-0.141l-0.52,0.46l-0.58-0.87
	l-0.06-0.789l1.18-0.951l1.36,1.131l0.98,0.06l1.26-0.85l1.1,0.06l-1.26,0.96l-0.71-0.01l-0.19,0.31l0.19,0.83l-0.87,0.101
	l-0.1-0.82l-0.44-0.101l-0.54,0.091L138.523,337.19L138.523,337.19z"/>
<path id="JP-19" fill="#E95A59" stroke="#898989" stroke-miterlimit="10" d="M273.622,294.21l-0.02,2.61l-0.34,0.7l-0.49,0.52
	l-0.709,0.1l-0.461,0.65l-1.789,0.83l-0.4,1.13l0,0l-0.67,0.39l-0.7-0.07l-0.37,0.271l-2.801,0.47l-0.449-0.97l-1.03,0.12
	l-0.569-1.26l-0.99,0.91l0.05,1.709l-0.431,0.611l0.4,2.659l-0.72,0.63l-1.24-0.119l-0.69-0.5l-0.689-2.69l-0.76-0.36l-0.76,0.52
	l-0.681-0.51l-0.329-1.3l0.459-0.93l-0.229-1.07l0.38-1.18l-0.939-3.18l0,0l-0.73-1.771l1-1.101l-0.88-0.859l0.97-1.97l0.2-0.12
	l0.72,0.62l1.77-2.71l1.431,0.58l-0.011,0.67l0.48,0.529l0.48-0.09l0.22-0.41l1.76,0.03l0.54,1.14l0.971-0.01l0.729-0.939
	l0.399,0.01l0,0l1.021,0.23l0.29,0.64l1.16,0.2l0.689,0.529l1.09-0.289l0,0l1.57,3.239L273.622,294.21z"/>
<path id="JP-06" fill="#E95A59" stroke="#898989" stroke-miterlimit="10" d="M296.282,237.73l-0.299,1.71l0.039,2.01l0.551,0.41
	l-1.33,1.61l-1.301-0.26l-0.74,0.56l-1.469-1.12l-1.23,0.46l-0.971-1.68l-0.33,0.35l-0.629,0.07l-0.61-0.39l-0.94,0.58l-0.63-0.68
	l-0.79,0.18l0,0l-0.449-0.77l-0.451,0.13l-0.659-0.32l-0.66-1.16l0.59-3.17l0.69-0.51l-0.351-0.76l0.341-0.82l-0.16-1.31l0.52-0.82
	l1.58,0.22l1.37-0.86l0.79-1.59l-1.15-1.229l-1.84-0.48l-0.8-1.13l0.399-1.99l-0.24-0.29l-1.479-0.32l-1.81-0.96l0,0l1.17-3.08
	l1.74-1.51l1.14-1.5l1.13-4.08l0.609-1.04l0.701-2.64l-0.181-0.58l0,0l2.511,0.41l0.369-0.46l0.98-0.24l0.199,1.17l0.711,0.18
	l0.789,0.7l3.08,0.94l1.08-0.27l0.351,0.77l1.06,0.08l0.58,1.8l1.52,0.53l0.24,0.45l0,0l-0.229,0.35l1.06,1.02l0.19,1.06l0.83,0.45
	l-0.681,1.1l0.221,0.97l-0.43,1.15l-0.4,0.1l-0.66-0.35l-0.1,0.23l0.609,1.37l0.03,0.54l-0.38,0.65l0.27,0.91l0.6,0.39l0.201,0.7
	l-0.61,1.6l-1.09,1.14l0.159,0.6l-1.049,1.32l-0.16,1.02l0.229,1.23l-1.11,1.58l-0.189,1.02l-0.99,0.55l-1.72,0.01L296.282,237.73
	L296.282,237.73z"/>
</svg>
